<svg width="64" height="54" viewBox="0 0 64 54" fill="none" xmlns="http://www.w3.org/2000/svg">
<circle opacity="0.6" cx="37" cy="27" r="27" fill="#BE9948"/>
<path d="M24.068 46.2003C32.0848 46.2003 38.6068 39.6783 38.6068 31.6615C38.6068 24.0153 32.6726 17.7335 25.1684 17.1687L30.2715 12.38C30.2734 12.3781 30.2743 12.3756 30.2762 12.3737C30.2893 12.3611 30.2972 12.3446 30.3088 12.3306C30.3348 12.2989 30.3594 12.2669 30.3761 12.2306C30.3846 12.2125 30.388 12.1929 30.3941 12.1737C30.4062 12.1357 30.4151 12.098 30.4174 12.0583C30.418 12.0484 30.4231 12.0401 30.4231 12.0301C30.4231 12.0168 30.4167 12.0057 30.4156 11.9927C30.4127 11.9556 30.4053 11.92 30.3936 11.884C30.3861 11.8607 30.3787 11.8387 30.3678 11.8172C30.3624 11.8063 30.3612 11.7943 30.3549 11.7837L29.9755 11.1493C28.7391 9.08349 26.4755 7.80005 24.068 7.80005C21.6603 7.80005 19.3967 9.08349 18.1604 11.1495L17.7809 11.7837C17.7746 11.7943 17.7735 11.8063 17.768 11.8172C17.7572 11.8388 17.7498 11.8608 17.7422 11.8841C17.7306 11.9201 17.7232 11.9556 17.7203 11.9926C17.7192 12.0056 17.7127 12.0168 17.7127 12.03C17.7127 12.0401 17.7178 12.0484 17.7184 12.0583C17.7208 12.098 17.7296 12.1356 17.7417 12.1736C17.7479 12.1929 17.7513 12.2125 17.7598 12.2307C17.7765 12.2669 17.8011 12.2988 17.827 12.3304C17.8386 12.3445 17.8465 12.361 17.8597 12.3737C17.8616 12.3756 17.8624 12.3781 17.8644 12.38L22.9676 17.1687C15.4634 17.7336 9.5293 24.0153 9.5293 31.6615C9.5293 39.6783 16.0513 46.2003 24.068 46.2003ZM21.5471 12.51L22.8708 15.7614L19.4057 12.51H21.5471ZM25.4108 11.55H22.7253L24.068 9.26958L25.4108 11.55ZM28.7301 12.51L25.2654 15.7614L26.589 12.51H28.7301ZM25.5524 12.51L24.068 16.1562L22.5837 12.51H25.5524ZM29.0881 11.55H26.5249L24.9221 8.82778C26.6267 9.07965 28.1645 10.0726 29.0881 11.55ZM23.214 8.82778L21.6112 11.55H19.0479C19.9715 10.0725 21.5094 9.07962 23.214 8.82778ZM24.068 18.0828C31.5554 18.0828 37.6468 24.1742 37.6468 31.6615C37.6468 39.1489 31.5554 45.2403 24.068 45.2403C16.5807 45.2403 10.4893 39.1489 10.4893 31.6615C10.4893 24.1742 16.5807 18.0828 24.068 18.0828Z" fill="black"/>
<path d="M15.7607 39.9687C17.9797 42.1877 20.9298 43.4098 24.0681 43.4098C27.2061 43.4098 30.1562 42.1877 32.3753 39.9687C34.5943 37.7498 35.8164 34.7995 35.8164 31.6615C35.8164 28.5234 34.5943 25.5731 32.3753 23.3543C30.1562 21.1352 27.2061 19.9132 24.0681 19.9132C20.9298 19.9132 17.9797 21.1352 15.7607 23.3543C11.18 27.9349 11.18 35.388 15.7607 39.9687ZM16.4394 24.0331C18.4771 21.9954 21.1862 20.8732 24.0681 20.8732C26.9497 20.8732 29.6589 21.9954 31.6965 24.0331C33.7342 26.0707 34.8564 28.7798 34.8564 31.6615C34.8564 34.5431 33.7342 37.2523 31.6965 39.2899C29.6589 41.3276 26.9497 42.4498 24.0681 42.4498C21.1862 42.4498 18.4771 41.3276 16.4394 39.2899C12.2331 35.0836 12.2331 28.2394 16.4394 24.0331Z" fill="black"/>
<path d="M11.7598 12.03C11.7598 12.2951 11.9747 12.51 12.2398 12.51H14.8798C15.1448 12.51 15.3598 12.2951 15.3598 12.03C15.3598 11.765 15.1448 11.55 14.8798 11.55H12.2398C11.9747 11.55 11.7598 11.765 11.7598 12.03Z" fill="black"/>
<path d="M15.5882 9.41997L13.4171 7.91809C13.1994 7.76692 12.8996 7.8213 12.7494 8.03973C12.5985 8.2577 12.6531 8.55677 12.871 8.70747L15.0421 10.2093C15.1253 10.267 15.2204 10.2947 15.3146 10.2947C15.467 10.2947 15.6167 10.2225 15.7098 10.0877C15.8607 9.86973 15.8061 9.57067 15.5882 9.41997Z" fill="black"/>
<path d="M15.0421 13.8503L12.871 15.3524C12.6531 15.5031 12.5985 15.8022 12.7494 16.0202C12.8425 16.1549 12.9922 16.2271 13.1446 16.2271C13.2388 16.2271 13.3339 16.1995 13.4171 16.1418L15.5882 14.6397C15.8061 14.489 15.8607 14.1899 15.7098 13.972C15.5591 13.754 15.2596 13.6992 15.0421 13.8503Z" fill="black"/>
<path d="M32.6406 12.03C32.6406 12.2951 32.8555 12.51 33.1206 12.51H35.7606C36.0257 12.51 36.2406 12.2951 36.2406 12.03C36.2406 11.765 36.0257 11.55 35.7606 11.55H33.1206C32.8555 11.55 32.6406 11.765 32.6406 12.03Z" fill="black"/>
<path d="M32.4121 14.6397L34.5831 16.1418C34.6663 16.1995 34.7614 16.2271 34.8557 16.2271C35.008 16.2271 35.1578 16.1549 35.2508 16.0202C35.4017 15.8022 35.3471 15.5031 35.1292 15.3524L32.9582 13.8503C32.7404 13.6992 32.4409 13.754 32.2904 13.972C32.1395 14.1899 32.1941 14.489 32.4121 14.6397Z" fill="black"/>
<path d="M34.5831 7.91809L32.4121 9.41997C32.1941 9.57067 32.1395 9.86973 32.2904 10.0877C32.3835 10.2225 32.5332 10.2947 32.6856 10.2947C32.7798 10.2947 32.875 10.267 32.9582 10.2093L35.1292 8.70747C35.3471 8.55677 35.4017 8.2577 35.2508 8.03973C35.1001 7.8213 34.8006 7.76692 34.5831 7.91809Z" fill="black"/>
</svg>
