<svg width="64" height="54" viewBox="0 0 64 54" fill="none" xmlns="http://www.w3.org/2000/svg">
<circle opacity="0.6" cx="37" cy="27" r="27" fill="#BE9948"/>
<path d="M42.7198 7.80005C42.4547 7.80005 42.2398 8.01497 42.2398 8.28005C42.2398 18.3375 34.0573 26.52 23.9998 26.52C13.9423 26.52 5.7598 18.3375 5.7598 8.28005C5.7598 8.01497 5.54488 7.80005 5.2798 7.80005C5.01472 7.80005 4.7998 8.01497 4.7998 8.28005C4.7998 14.7674 8.03702 20.5094 12.9776 23.9868C12.3396 24.0675 11.7242 24.2932 11.1753 24.6626C10.25 25.2849 9.62231 26.2306 9.40832 27.3249C9.1941 28.4194 9.4191 29.5318 10.0416 30.4571C10.6641 31.3824 11.6096 32.0098 12.7039 32.224C12.9739 32.2768 13.245 32.3028 13.5141 32.3028C14.3358 32.3028 15.139 32.0595 15.8361 31.5905C16.7614 30.968 17.3888 30.0225 17.603 28.9282C17.7836 28.0044 17.6481 27.0691 17.2281 26.2432C18.7967 26.8366 20.462 27.2301 22.1942 27.3925C21.868 27.7942 21.6643 28.299 21.6643 28.8556C21.6643 29.2411 21.7373 29.647 21.8784 30.0658C18.3775 31.0045 15.7887 34.1959 15.7887 37.9889C15.7887 42.5166 19.4721 46.2 23.9998 46.2C28.5275 46.2 32.2109 42.5166 32.2109 37.9889C32.2109 34.1969 29.6235 31.0061 26.1239 30.0665C26.2622 29.65 26.3354 29.2437 26.3354 28.8556C26.3354 28.299 26.1316 27.7942 25.8054 27.3925C27.8602 27.1999 29.8211 26.6821 31.6376 25.8912C30.7793 27.2483 30.7445 29.0415 31.6967 30.4571C32.3192 31.3824 33.2649 32.0098 34.3592 32.224C34.6292 32.2768 34.9004 32.303 35.1694 32.303C35.9911 32.303 36.7943 32.0595 37.4911 31.5905C39.4013 30.3057 39.9099 27.7062 38.6248 25.7963C38.0025 24.871 37.0568 24.2433 35.9623 24.0293C35.6642 23.9708 35.3649 23.948 35.0682 23.9539C39.9826 20.4732 43.1998 14.7471 43.1998 8.28005C43.1998 8.01497 42.9849 7.80005 42.7198 7.80005ZM16.6608 28.7438C16.4961 29.5866 16.0128 30.3148 15.3003 30.7941C14.5873 31.2736 13.7307 31.4457 12.8883 31.2818C12.0455 31.1171 11.3173 30.6338 10.838 29.9213C10.3587 29.2086 10.1855 28.3522 10.3505 27.5093C10.5153 26.6665 10.9986 25.9383 11.7111 25.459C12.4233 24.9797 13.2797 24.8056 14.1228 24.9715C14.9656 25.1363 15.6938 25.6196 16.1731 26.3321C16.6524 27.0446 16.8256 27.9012 16.6608 28.7438ZM35.7781 24.9715C36.6209 25.1363 37.3491 25.6196 37.8284 26.3321C38.3077 27.0446 38.4809 27.901 38.3159 28.7438C38.1511 29.5866 37.6678 30.3148 36.9553 30.7941C35.4851 31.7841 33.4831 31.3922 32.4931 29.9213C31.5038 28.4504 31.8954 26.4486 33.3661 25.459C34.0786 24.9797 34.9348 24.8065 35.7781 24.9715ZM23.5198 30.7622V33.5296C22.2329 33.6672 21.1105 34.3532 20.3829 35.3464L17.9769 33.9573C19.1954 32.1428 21.2126 30.9144 23.5198 30.7622ZM27.5257 37.9889C27.5257 39.9331 25.9439 41.5149 23.9998 41.5149C22.0557 41.5149 20.4739 39.9331 20.4739 37.9889C20.4739 36.0448 22.0557 34.463 23.9998 34.463C25.9439 34.463 27.5257 36.0448 27.5257 37.9889ZM17.5016 34.7916L19.8999 36.1763C19.6535 36.7312 19.5139 37.3437 19.5139 37.989C19.5139 38.6343 19.6535 39.2468 19.8999 39.8018L17.5016 41.1863C17.0243 40.2203 16.7487 39.1374 16.7487 37.989C16.7487 36.8405 17.0243 35.7576 17.5016 34.7916ZM17.9769 42.0207L20.383 40.6316C21.1107 41.6248 22.2329 42.3107 23.5198 42.4483V45.2157C21.2126 45.0635 19.1954 43.8351 17.9769 42.0207ZM24.4798 45.2157V42.4483C25.7667 42.3107 26.8889 41.6248 27.6166 40.6316L30.0227 42.0207C28.8042 43.8351 26.787 45.0635 24.4798 45.2157ZM30.498 41.1863L28.0997 39.8018C28.3461 39.2468 28.4857 38.6343 28.4857 37.989C28.4857 37.3437 28.3461 36.7312 28.0998 36.1763L30.498 34.7916C30.9753 35.7576 31.2509 36.8405 31.2509 37.9889C31.2509 39.1374 30.9753 40.2203 30.498 41.1863ZM30.0227 33.9573L27.6167 35.3464C26.8891 34.3532 25.7667 33.6672 24.4798 33.5296V30.7622C26.787 30.9144 28.8042 32.1428 30.0227 33.9573ZM25.3753 28.8556C25.3753 29.1726 25.3053 29.5145 25.1747 29.8718C24.7899 29.8163 24.3997 29.7779 23.9998 29.7779C23.6017 29.7779 23.2132 29.816 22.83 29.8711C22.6962 29.511 22.6243 29.1693 22.6243 28.8556C22.6243 28.0972 23.2414 27.48 23.9998 27.48C24.7582 27.48 25.3753 28.0972 25.3753 28.8556Z" fill="black"/>
</svg>
