<svg width="64" height="54" viewBox="0 0 64 54" fill="none" xmlns="http://www.w3.org/2000/svg">
<circle opacity="0.6" cx="37" cy="27" r="27" fill="#BE9948"/>
<path d="M8.16028 26.9602C8.42559 26.9602 8.64028 26.7455 8.64028 26.4802V25.4391H9.68137C9.94668 25.4391 10.1614 25.2244 10.1614 24.9591C10.1614 24.6938 9.94668 24.4791 9.68137 24.4791H8.64028V23.438C8.64028 23.1727 8.42559 22.958 8.16028 22.958C7.89497 22.958 7.68028 23.1727 7.68028 23.438V24.4791H6.63918C6.37387 24.4791 6.15918 24.6938 6.15918 24.9591C6.15918 25.2244 6.37387 25.4391 6.63918 25.4391H7.68028V26.4802C7.68028 26.7455 7.89497 26.9602 8.16028 26.9602Z" fill="black"/>
<path d="M36.261 11.04C36.261 10.7747 36.0463 10.56 35.781 10.56H34.7399V9.51894C34.7399 9.25363 34.5252 9.03894 34.2599 9.03894C33.9946 9.03894 33.7799 9.25363 33.7799 9.51894V10.56H32.7388C32.4735 10.56 32.2588 10.7747 32.2588 11.04C32.2588 11.3053 32.4735 11.52 32.7388 11.52H33.7799V12.5611C33.7799 12.8264 33.9946 13.0411 34.2599 13.0411C34.5252 13.0411 34.7399 12.8264 34.7399 12.5611V11.52H35.781C36.0463 11.52 36.261 11.3053 36.261 11.04Z" fill="black"/>
<path d="M39.5402 22.5591C39.8055 22.5591 40.0202 22.3444 40.0202 22.0791V21.038H41.0613C41.3266 21.038 41.5413 20.8233 41.5413 20.558C41.5413 20.2927 41.3266 20.078 41.0613 20.078H40.0202V19.0369C40.0202 18.7716 39.8055 18.5569 39.5402 18.5569C39.2748 18.5569 39.0602 18.7716 39.0602 19.0369V20.078H38.0191C37.7538 20.078 37.5391 20.2927 37.5391 20.558C37.5391 20.8233 37.7538 21.038 38.0191 21.038H39.0602V22.0791C39.0602 22.3444 39.2748 22.5591 39.5402 22.5591Z" fill="black"/>
<path d="M12.7404 13.4879L13.8012 12.9C13.954 12.8152 14.0487 12.6544 14.0487 12.48C14.0487 12.3057 13.954 12.1449 13.8012 12.06L12.7409 11.4722C11.7622 10.9299 10.962 10.119 10.4267 9.12755L9.84684 8.05224C9.7634 7.89708 9.60121 7.80005 9.42449 7.80005C9.24824 7.80005 9.08606 7.89661 9.00215 8.05224L8.42184 9.12755C7.88653 10.119 7.08637 10.9299 6.10809 11.4722L5.0473 12.06C4.89449 12.1449 4.7998 12.3057 4.7998 12.48C4.7998 12.6544 4.89449 12.8152 5.0473 12.9L6.10761 13.4879C7.08636 14.0302 7.88652 14.8411 8.42183 15.8326L9.00214 16.9079C9.08605 17.0635 9.24824 17.1601 9.42448 17.1601C9.6012 17.1601 9.76339 17.063 9.84683 16.9079L10.4267 15.8326C10.962 14.8411 11.7621 14.0302 12.7404 13.4879ZM9.58199 15.3769L9.42449 15.669L9.26653 15.3769C8.64402 14.2233 7.71262 13.2797 6.57309 12.6479L6.27028 12.48L6.57356 12.3122C7.71262 11.6804 8.64403 10.7368 9.26653 9.58317L9.42449 9.29114L9.58199 9.58317C10.2045 10.7368 11.1359 11.6804 12.2754 12.3122L12.5782 12.48L12.275 12.6479C11.1359 13.2797 10.2045 14.2233 9.58199 15.3769Z" fill="black"/>
<path d="M14.8723 41.3971C15.0251 41.3123 15.1198 41.1515 15.1198 40.9771C15.1198 40.8028 15.0251 40.642 14.8723 40.5571L13.6742 39.8929C12.5595 39.2756 11.6478 38.3512 11.0375 37.2206L10.3822 36.0065C10.2143 35.6953 9.70528 35.6953 9.53747 36.0065L8.88216 37.2206C8.27185 38.3512 7.36012 39.2756 6.24544 39.8929L5.04732 40.5571C4.89449 40.642 4.7998 40.8028 4.7998 40.9771C4.7998 41.1515 4.89449 41.3123 5.0473 41.3971L6.24496 42.0609C7.36012 42.6787 8.2723 43.6031 8.88215 44.7337L9.53746 45.9478C9.62137 46.1034 9.78355 46.2 9.9598 46.2C10.1361 46.2 10.2982 46.1034 10.3821 45.9478L11.0375 44.7337C11.6473 43.6031 12.5595 42.6787 13.6742 42.0609L14.8723 41.3971ZM13.2087 41.2209C11.9328 41.9287 10.8898 42.9857 10.1928 44.2781L9.9598 44.7093L9.72684 44.2781C9.0298 42.9857 7.98684 41.9287 6.71043 41.2209L6.27028 40.9771L6.71043 40.7329C7.98637 40.026 9.02933 38.969 9.72684 37.6762L9.9598 37.2449L10.1928 37.6762C10.8903 38.969 11.9332 40.026 13.2092 40.7329L13.6493 40.9771L13.2087 41.2209Z" fill="black"/>
<path d="M42.9528 38.1117L41.675 37.4034C40.4811 36.742 39.5043 35.752 38.8503 34.5408L38.1519 33.2466C38.068 33.0914 37.9058 32.9944 37.7296 32.9944C37.5533 32.9944 37.3911 33.0909 37.3072 33.2461L36.6083 34.5408C35.9544 35.752 34.9775 36.742 33.7832 37.4034L32.5058 38.1117C32.3535 38.1966 32.2588 38.3574 32.2588 38.5317C32.2588 38.7061 32.3535 38.8669 32.5063 38.9517L33.7836 39.6595C34.978 40.3214 35.9544 41.3114 36.6083 42.5222L37.3072 43.8169C37.3911 43.9725 37.5533 44.0691 37.7296 44.0691C37.9063 44.0691 38.0685 43.972 38.1519 43.8169L38.8503 42.5222C39.5042 41.3114 40.4807 40.3214 41.675 39.6595L42.9524 38.9517C43.1052 38.8669 43.1999 38.7061 43.1999 38.5317C43.1999 38.3573 43.1052 38.1966 42.9528 38.1117ZM41.21 38.8195C39.8544 39.571 38.7468 40.6936 38.0057 42.0666L37.7296 42.5785L37.453 42.0666C36.7119 40.6936 35.6043 39.571 34.2486 38.8195L33.7288 38.5317L34.2486 38.2434C35.6038 37.493 36.7114 36.3699 37.453 34.9969L37.7296 34.485L38.0057 34.9964C38.7472 36.3699 39.8549 37.493 41.2096 38.2434L41.7299 38.5317L41.21 38.8195Z" fill="black"/>
<path d="M35.0122 25.9261C35.0093 25.8886 35.0019 25.8526 34.99 25.8162C34.9826 25.7935 34.9754 25.7719 34.9648 25.7507C34.9593 25.7396 34.9581 25.7273 34.9516 25.7165L32.8062 22.1306C31.5691 20.0648 29.3055 18.7814 26.898 18.7814H21.1821C18.7751 18.7814 16.5115 20.0648 15.2745 22.1306L13.1285 25.7165C13.122 25.7274 13.1208 25.7397 13.1153 25.7508C13.1047 25.7719 13.0976 25.7934 13.0902 25.8161C13.0783 25.8526 13.0708 25.8886 13.068 25.9261C13.067 25.939 13.0605 25.95 13.0605 25.9631C13.0605 25.973 13.0656 25.9813 13.0662 25.9911C13.0686 26.031 13.0774 26.0688 13.0896 26.107C13.0957 26.1262 13.0991 26.1456 13.1075 26.1637C13.1246 26.2008 13.1495 26.2335 13.1763 26.2658C13.1872 26.279 13.1946 26.2946 13.2069 26.3065C13.209 26.3085 13.2098 26.3113 13.212 26.3133L23.7115 36.1659C23.719 36.1729 23.7288 36.1753 23.7366 36.1817C23.7674 36.2072 23.8007 36.2278 23.8369 36.2449C23.8518 36.252 23.8655 36.2607 23.8809 36.2661C23.9314 36.284 23.9844 36.2957 24.0401 36.2957C24.0957 36.2957 24.1487 36.284 24.1992 36.2661C24.2147 36.2607 24.2283 36.252 24.2433 36.2449C24.2794 36.2278 24.3128 36.2072 24.3435 36.1817C24.3514 36.1753 24.3612 36.1729 24.3687 36.1659L34.8682 26.3132C34.8703 26.3113 34.8712 26.3085 34.8733 26.3065C34.8856 26.2945 34.893 26.279 34.9039 26.2657C34.9306 26.2334 34.9556 26.2007 34.9727 26.1637C34.9811 26.1456 34.9845 26.1261 34.9906 26.1069C35.0027 26.0687 35.0116 26.0309 35.0139 25.9911C35.0145 25.9813 35.0196 25.973 35.0196 25.9631C35.0196 25.95 35.0132 25.939 35.0122 25.9261ZM19.7872 26.4431L22.7956 33.9898L14.7533 26.4431H19.7872ZM27.2601 26.4431L24.0401 34.5196L20.8205 26.4431H27.2601ZM20.9798 25.4831L24.0401 20.2851L27.1008 25.4831H20.9798ZM28.2934 26.4431H33.3269L25.2847 33.9897L28.2934 26.4431ZM31.9821 22.6237L33.6931 25.4831H28.2147L24.8338 19.7414H26.898C28.9699 19.7414 30.918 20.8457 31.9821 22.6237ZM16.0985 22.6237C17.1626 20.8457 19.1107 19.7414 21.1821 19.7414H23.2463L19.8659 25.4831H14.3871L16.0985 22.6237Z" fill="black"/>
</svg>
