<svg width="64" height="54" viewBox="0 0 64 54" fill="none" xmlns="http://www.w3.org/2000/svg">
<circle opacity="0.6" cx="37" cy="27" r="27" fill="#BE9948"/>
<path d="M10.2321 29.6345C9.7097 31.2781 10.0839 32.9786 11.2053 34.2064C10.0842 35.4337 9.7097 37.1347 10.2321 38.7777C10.7546 40.4213 12.0354 41.5723 13.6487 41.8919C13.448 43.5585 14.1234 45.1591 15.491 46.1748C16.8588 47.1899 18.557 47.3521 20.0463 46.6416C20.8423 48.1105 22.3095 49 24 49C25.6906 49 27.1578 48.1105 27.9538 46.6416C29.442 47.3516 31.1415 47.1899 32.5091 46.1748C33.8767 45.1591 34.5521 43.5585 34.3513 41.8919C35.9646 41.5723 37.2455 40.4213 37.7679 38.7777C38.2903 37.1347 37.9159 35.4337 36.7948 34.2064C37.9159 32.9791 38.2903 31.2781 37.7679 29.6351C37.2455 27.9915 35.9646 26.8405 34.3513 26.5209C34.5521 24.8542 33.8767 23.2537 32.5091 22.238C31.1407 21.2229 29.4425 21.0606 27.9538 21.7712C27.5089 20.9502 26.8494 20.319 26.0633 19.9141C28.2294 19.0631 29.7734 16.9204 29.7734 14.4107C29.7734 12.642 29.0126 11.0093 27.6893 9.88397L28.1346 5.60801C28.1506 5.45332 28.1015 5.2981 27.9995 5.18208C27.8973 5.06606 27.752 5 27.5993 5H20.4008C20.2481 5 20.1028 5.06606 20.0005 5.18208C19.8986 5.2981 19.8494 5.45332 19.8655 5.60801L20.3108 9.88461C18.9871 11.0095 18.2267 12.6384 18.2267 14.4107C18.2267 16.9204 19.7707 19.0631 21.9367 19.9141C21.1507 20.319 20.4912 20.9502 20.0463 21.7712C18.557 21.0612 16.8588 21.2229 15.4912 22.238C14.1231 23.2537 13.4477 24.8548 13.6487 26.5214C12.0357 26.841 10.7548 27.9915 10.2321 29.6345ZM11.256 38.4377C10.9141 37.3629 11.0091 35.8347 12.2501 34.7116C12.8863 34.582 15.8374 34.0943 19.2666 35.2808C19.4042 35.9141 19.6595 36.502 20.0097 37.0191C16.7234 38.1798 14.6954 40.1635 14.0754 40.8362C12.5059 40.6249 11.5885 39.4844 11.256 38.4377ZM24 30.3489C26.0816 30.3489 27.7751 32.0794 27.7751 34.2064C27.7751 36.3334 26.0816 38.0639 24 38.0639C21.9184 38.0639 20.225 36.3334 20.225 34.2064C20.225 32.0794 21.9184 30.3489 24 30.3489ZM16.1238 45.2848C15.2288 44.6202 14.4269 43.3274 14.7843 41.6735C15.2239 41.1867 17.3336 39.0167 20.7936 37.9167C21.2563 38.3349 21.7965 38.6631 22.3905 38.8775C20.3982 41.7913 19.8985 44.6148 19.7841 45.5315C18.393 46.3027 16.9948 45.9312 16.1238 45.2848ZM24 47.9C22.8936 47.9 21.5004 47.3351 20.8389 45.7817C20.9129 45.1253 21.3641 42.1168 23.5359 39.1399C23.6888 39.1548 23.8434 39.1639 24 39.1639C24.4812 39.1639 24.9453 39.0895 25.3845 38.9555C25.4492 42.5072 26.6686 45.0901 27.1033 45.9006C26.4216 47.3604 25.0767 47.9 24 47.9ZM31.8763 45.2848C30.9815 45.9484 29.5296 46.3283 28.1013 45.4704C27.7842 44.893 26.4166 42.1724 26.4623 38.4704C27 38.1448 27.4701 37.7174 27.8487 37.2126C29.945 40.0505 32.4191 41.4092 33.2372 41.8036C33.525 43.3942 32.7473 44.638 31.8763 45.2848ZM36.7441 38.4377C36.4024 39.5132 35.4467 40.6924 33.7968 40.8557C33.2081 40.579 30.5393 39.2007 28.4474 36.1813C28.6907 35.6114 28.8295 34.986 28.8454 34.3294C30.5671 34.8655 32.1454 35.0201 33.3903 35.0201C34.55 35.0201 35.4133 34.8874 35.8425 34.8044C36.9905 35.9181 37.0768 37.3917 36.7441 38.4377ZM36.7441 29.9745C37.086 31.0499 36.991 32.5779 35.75 33.7011C35.1145 33.8306 32.1622 34.3188 28.7336 33.1326C28.596 32.4991 28.3407 31.911 27.9904 31.3937C31.2767 30.2334 33.3047 28.2498 33.9247 27.5771C35.494 27.7884 36.4113 28.9284 36.7441 29.9745ZM31.8763 23.128C32.771 23.7926 33.5731 25.0855 33.2158 26.7399C32.7762 27.2267 30.6664 29.3965 27.2065 30.4961C26.7437 30.0779 26.2035 29.7498 25.6096 29.5353C27.6019 26.6219 28.1016 23.7981 28.216 22.8813C29.6075 22.1101 31.0057 22.4816 31.8763 23.128ZM27.0009 6.1L26.2138 13.6582H21.7862L20.9992 6.1H27.0009ZM19.3031 14.4107C19.3031 13.2318 19.7166 12.1303 20.4547 11.2665L20.7671 14.2662C20.796 14.546 21.027 14.7582 21.3022 14.7582H26.6979C26.973 14.7582 27.204 14.546 27.2329 14.2662L27.5451 11.2688C28.2825 12.1332 28.697 13.2348 28.697 14.4107C28.697 17.057 26.5899 19.2103 24 19.2103C21.4102 19.2103 19.3031 17.057 19.3031 14.4107ZM24 20.5128C25.1063 20.5128 26.4991 21.0776 27.1609 22.6305C27.0854 23.2879 26.6273 26.3072 24.4642 29.2729C24.3112 29.258 24.1567 29.2489 24 29.2489C23.5188 29.2489 23.0547 29.3233 22.6155 29.4573C22.5508 25.9056 21.3315 23.3226 20.8968 22.5122C21.5785 21.0524 22.9233 20.5128 24 20.5128ZM16.1238 23.128C17.0176 22.4645 18.4664 22.0788 19.8942 22.9342C20.2014 23.4911 21.5836 26.2202 21.5378 29.9424C21 30.268 20.5299 30.6954 20.1513 31.2003C18.0551 28.3628 15.5811 27.0042 14.763 26.6097C14.4748 25.0188 15.2526 23.7749 16.1238 23.128ZM14.2023 27.5573C14.7891 27.8328 17.4595 29.2108 19.5527 32.2315C19.3091 32.802 19.1702 33.4281 19.1546 34.0854C15.8275 33.0499 13.0459 33.4362 12.1575 33.6084C11.0096 32.4946 10.9233 31.0211 11.256 29.975C11.5976 28.8998 12.5531 27.7209 14.2023 27.5573Z" fill="black"/>
</svg>
