<svg width="64" height="54" viewBox="0 0 64 54" fill="none" xmlns="http://www.w3.org/2000/svg">
<circle opacity="0.6" cx="37" cy="27" r="27" fill="#BE9948"/>
<path d="M42.7198 7.80005H25.2027C24.9376 7.80005 24.7227 8.01474 24.7227 8.28005V45.72C24.7227 45.9854 24.9376 46.2 25.2027 46.2H42.7198C42.9849 46.2 43.1998 45.9854 43.1998 45.72V8.28005C43.1998 8.01474 42.9849 7.80005 42.7198 7.80005ZM42.2398 45.24H25.6827V8.76005H42.2398V45.24Z" fill="black"/>
<path d="M22.797 7.80005H5.2798C5.01472 7.80005 4.7998 8.01474 4.7998 8.28005V45.72C4.7998 45.9854 5.01472 46.2 5.2798 46.2H22.797C23.0621 46.2 23.277 45.9854 23.277 45.72V8.28005C23.277 8.01474 23.0621 7.80005 22.797 7.80005ZM22.317 10.6649L16.3157 16.6554C16.1813 16.2906 15.9602 15.9394 15.6293 15.609C15.3232 15.3035 14.9988 15.0843 14.6652 14.9458L20.8618 8.76005H22.317V10.6649ZM15.4894 19.508C15.7503 19.2474 16.1182 19.1236 16.535 19.1236C17.2739 19.1236 18.165 19.5136 18.8766 20.2243C19.3552 20.7019 19.5978 21.1632 19.5978 21.5949C19.5978 22.0149 19.3655 22.4602 18.9073 22.9172C17.9719 23.8515 17.164 23.8425 16.2071 22.8868C15.5152 22.1963 15.1022 21.3249 15.1022 20.5557C15.1022 20.2538 15.1695 19.8272 15.4894 19.508ZM5.7598 23.8323C5.76285 23.8295 5.76689 23.8286 5.76988 23.8257L11.1355 18.4693C11.2733 18.8064 11.4878 19.1313 11.7954 19.4386C12.1262 19.7686 12.4792 19.9889 12.8412 20.1238L5.7598 27.1928V23.8323ZM13.8164 15.7341C14.202 15.7341 14.581 15.9193 14.9511 16.2886C15.3181 16.6547 15.5042 17.0325 15.5042 17.4108C15.5042 17.9316 15.1582 18.3863 14.8679 18.676C14.0457 19.4968 13.2401 19.5244 12.4737 18.759C12.1067 18.3924 11.9204 18.0146 11.9206 17.6363C11.9206 17.1155 12.2665 16.6613 12.5569 16.3716C12.9823 15.9469 13.403 15.7341 13.8164 15.7341ZM11.7739 15.7965C11.0508 16.5183 9.49902 16.1907 8.38668 15.0797C7.90809 14.6026 7.66551 14.1413 7.66551 13.7096C7.66551 13.2891 7.89754 12.8438 8.35575 12.3868C8.81864 11.9246 9.25012 11.6935 9.68418 11.6935C10.1272 11.6935 10.5727 11.9349 11.0562 12.4177C11.7479 13.1082 12.1608 13.9796 12.1608 14.7493C12.1608 15.0507 12.0938 15.4772 11.7739 15.7965ZM19.5026 8.76005L13.4454 14.8068C13.3329 14.8266 13.2205 14.8547 13.1085 14.8924C13.1109 14.8438 13.1208 14.7988 13.1208 14.7493C13.1208 13.7302 12.6026 12.6047 11.7345 11.738C10.4164 10.4227 8.9759 10.4115 7.67746 11.7071C7.03246 12.3511 6.70527 13.0252 6.70551 13.7096C6.70551 14.4057 7.04301 15.0952 7.7084 15.7594C8.60957 16.659 9.7334 17.1352 10.7288 17.1352C10.8304 17.1352 10.9275 17.1206 11.0261 17.1106C11.0149 17.1564 11.0076 17.2025 10.9993 17.2485L5.7598 22.479V8.76005H19.5026ZM5.7598 45.24V28.5495L14.0843 20.2397C14.0905 20.2336 14.0924 20.2253 14.0982 20.2189C14.1232 20.2131 14.148 20.2039 14.173 20.1972C14.1583 20.3147 14.1422 20.4317 14.1422 20.5557C14.1422 21.5743 14.6607 22.6997 15.5288 23.5665C16.1932 24.2293 16.8884 24.5611 17.581 24.5611C18.2628 24.5607 18.9418 24.2396 19.5856 23.5969C20.2306 22.9529 20.5578 22.2793 20.5578 21.5949C20.5578 20.8988 20.2203 20.2093 19.5549 19.5446C18.5896 18.5808 17.37 18.1062 16.3257 18.1791C16.3568 18.0925 16.3834 18.0056 16.404 17.9183C16.4093 17.9134 16.4162 17.9118 16.4213 17.9068L22.317 12.0216V45.24H5.7598Z" fill="black"/>
<path d="M27.6162 37.6012C27.6162 41.0995 30.4625 43.9457 33.961 43.9457C37.4595 43.9457 40.3057 41.0995 40.3057 37.6012C40.3057 34.6962 38.3411 32.247 35.6726 31.4974C35.7653 31.1994 35.8123 30.9082 35.8123 30.6286C35.8123 29.9206 35.4082 29.3114 34.8225 29.0001C36.2119 27.342 39.9277 22.4149 39.9277 17.1445C39.9277 13.4414 37.2511 10.4287 33.961 10.4287C30.6711 10.4287 27.9945 13.4414 27.9945 17.1445C27.9945 22.3283 31.7229 27.3233 33.105 28.9971C32.5163 29.3074 32.1097 29.9184 32.1097 30.6286C32.1097 30.9063 32.1591 31.1973 32.2534 31.4963C29.5828 32.2446 27.6162 34.6947 27.6162 37.6012ZM33.961 35.0423C35.3719 35.0423 36.5199 36.1903 36.5199 37.6012C36.5199 39.0121 35.3719 40.1601 33.961 40.1601C32.55 40.1601 31.4021 39.0121 31.4021 37.6012C31.4021 36.1903 32.55 35.0423 33.961 35.0423ZM39.3457 37.6012C39.3457 38.4101 39.1613 39.175 38.8404 39.8641L37.2184 38.9275C37.3858 38.5177 37.4799 38.0704 37.4799 37.6012C37.4799 37.132 37.3858 36.6847 37.2184 36.2749L38.8405 35.3383C39.1614 36.0274 39.3457 36.7923 39.3457 37.6012ZM30.7036 38.9275L29.0816 39.8641C28.7606 39.175 28.5762 38.4101 28.5762 37.6012C28.5762 36.7923 28.7606 36.0274 29.0815 35.3383L30.7036 36.2749C30.5361 36.6847 30.4421 37.132 30.4421 37.6012C30.4421 38.0704 30.5361 38.5177 30.7036 38.9275ZM29.5615 40.6957L31.1862 39.7575C31.7374 40.4652 32.5512 40.9557 33.481 41.0834V42.9614C31.8626 42.8176 30.4502 41.9552 29.5615 40.6957ZM34.441 42.9614V41.0834C35.3708 40.9557 36.1846 40.4652 36.7357 39.7575L38.3605 40.6957C37.4718 41.9552 36.0594 42.8176 34.441 42.9614ZM38.3607 34.5066L36.7357 35.4449C36.1846 34.7373 35.3708 34.2467 34.441 34.119V32.2405C36.0595 32.3844 37.472 33.2469 38.3607 34.5066ZM33.961 11.3887C36.7217 11.3887 38.9677 13.9706 38.9677 17.1445C38.9677 22.1957 35.1591 27.1078 33.9638 28.5243C32.7711 27.0904 28.9545 22.1123 28.9545 17.1445C28.9545 13.9706 31.2005 11.3887 33.961 11.3887ZM33.0697 30.6286C33.0697 30.1373 33.4695 29.7375 33.961 29.7375C34.4525 29.7375 34.8523 30.1373 34.8523 30.6286C34.8523 30.8383 34.8004 31.0672 34.7168 31.3055C34.4685 31.2759 34.2171 31.2562 33.961 31.2562C33.7064 31.2562 33.4567 31.2755 33.21 31.3048C33.1243 31.0652 33.0697 30.8359 33.0697 30.6286ZM33.481 32.2405V34.119C32.5512 34.2467 31.7374 34.7373 31.1862 35.4449L29.5613 34.5066C30.4499 33.2469 31.8625 32.3844 33.481 32.2405Z" fill="black"/>
</svg>
