<svg width="64" height="54" viewBox="0 0 64 54" fill="none" xmlns="http://www.w3.org/2000/svg">
<circle opacity="0.6" cx="37" cy="27" r="27" fill="#BE9948"/>
<path d="M5.2798 46.2H20.6956C20.9609 46.2 21.1756 45.9851 21.1756 45.72V28.1218C21.1756 27.8567 20.9609 27.6418 20.6956 27.6418H17.6914C18.9706 26.7681 19.8125 25.2991 19.8125 23.6365C19.8125 21.7342 18.7239 20.0418 17.0177 19.2461L17.9553 8.32106C17.967 8.18724 17.9215 8.05458 17.8306 7.95544C17.7396 7.85653 17.6117 7.80005 17.4771 7.80005H8.49824C8.36371 7.80005 8.23574 7.85653 8.1448 7.95544C8.05387 8.05458 8.0084 8.18724 8.02012 8.32106L8.95768 19.246C7.2514 20.0415 6.16293 21.733 6.16293 23.6365C6.16293 25.2991 7.00478 26.7681 8.28402 27.6418H5.2798C5.01449 27.6418 4.7998 27.8567 4.7998 28.1218V45.72C4.7998 45.9851 5.01449 46.2 5.2798 46.2ZM16.954 8.76005L15.912 20.9035H10.0634L9.02137 8.76005H16.954ZM7.12293 23.6365C7.12293 22.2312 7.86165 20.9688 9.04636 20.2792L9.14465 21.4245C9.16574 21.6727 9.3734 21.8635 9.62277 21.8635H16.3526C16.602 21.8635 16.8096 21.6727 16.8307 21.4245L16.929 20.2796C18.1134 20.9695 18.8525 22.2322 18.8525 23.6365C18.8525 25.7804 17.1082 27.5243 14.9646 27.5243H11.0107C8.86715 27.5243 7.12293 25.7804 7.12293 23.6365ZM12.9879 28.9254L19.992 36.9209L12.9879 44.9164L5.98387 36.9209L12.9879 28.9254ZM8.529 41.2829L5.7598 44.444V38.1216L8.529 41.2829ZM9.16691 42.0111L11.9955 45.24H6.33827L9.16691 42.0111ZM16.8089 42.0111L19.6372 45.24H13.9804L16.8089 42.0111ZM17.4469 41.2829L20.2156 38.1221V44.4439L17.4469 41.2829ZM20.2156 35.7197L17.4469 32.559L20.2156 29.3979V35.7197ZM16.8089 31.8307L13.9804 28.6018H19.6372L16.8089 31.8307ZM9.16691 31.8307L6.33827 28.6018H11.9955L9.16691 31.8307ZM8.529 32.559L5.7598 35.7202V29.3978L8.529 32.559Z" fill="black"/>
<path d="M27.3042 46.2H42.72C42.9853 46.2 43.2 45.9851 43.2 45.72V28.1218C43.2 27.8567 42.9853 27.6418 42.72 27.6418H39.7158C40.995 26.7681 41.8369 25.2991 41.8369 23.6365C41.8369 21.7344 40.7481 20.0421 39.0421 19.2463L39.9797 8.32106C39.9914 8.18724 39.9459 8.05458 39.855 7.95544C39.7641 7.85653 39.6361 7.80005 39.5016 7.80005H30.5227C30.3881 7.80005 30.2602 7.85653 30.1692 7.95544C30.0783 8.05458 30.0328 8.18724 30.0445 8.32106L30.9821 19.2458C29.2756 20.0412 28.1873 21.733 28.1873 23.6365C28.1873 25.2991 29.0292 26.7681 30.3084 27.6418H27.3042C27.0389 27.6418 26.8242 27.8567 26.8242 28.1218V45.72C26.8242 45.9851 27.0389 46.2 27.3042 46.2ZM38.9784 8.76005L37.9364 20.9035H32.0878L31.0458 8.76005H38.9784ZM29.1473 23.6365C29.1473 22.2312 29.8859 20.9686 31.0707 20.279L31.1691 21.4245C31.1902 21.6727 31.3978 21.8635 31.6472 21.8635H38.377C38.6264 21.8635 38.8341 21.6727 38.8552 21.4245L38.9534 20.2799C40.1377 20.9698 40.8769 22.2324 40.8769 23.6365C40.8769 25.7804 39.1327 27.5243 36.9891 27.5243H33.0352C30.8916 27.5243 29.1473 25.7804 29.1473 23.6365ZM35.0119 28.9254L42.0159 36.9209L35.0119 44.9164L28.0078 36.9209L35.0119 28.9254ZM30.5529 41.2829L27.7842 44.4439V38.1221L30.5529 41.2829ZM31.1909 42.0111L34.0194 45.24H28.3626L31.1909 42.0111ZM38.8329 42.0111L41.6616 45.24H36.0043L38.8329 42.0111ZM39.4708 41.2829L42.24 38.1216V44.444L39.4708 41.2829ZM42.24 35.7202L39.4708 32.559L42.24 29.3978V35.7202ZM38.8329 31.8307L36.0043 28.6018H41.6616L38.8329 31.8307ZM31.1909 31.8307L28.3626 28.6018H34.0194L31.1909 31.8307ZM30.5529 32.559L27.7842 35.7197V29.3979L30.5529 32.559Z" fill="black"/>
</svg>
