<svg width="64" height="54" viewBox="0 0 64 54" fill="none" xmlns="http://www.w3.org/2000/svg">
<circle opacity="0.6" cx="37" cy="27" r="27" fill="#BE9948"/>
<path d="M8.98125 42.4403H7.60734V41.0664C7.60734 40.8013 7.39242 40.5864 7.12734 40.5864C6.86227 40.5864 6.64734 40.8013 6.64734 41.0664V42.4403H5.27297C5.00789 42.4403 4.79297 42.6553 4.79297 42.9203C4.79297 43.1854 5.00789 43.4003 5.27297 43.4003H6.64734V44.7745C6.64734 45.0396 6.86227 45.2545 7.12734 45.2545C7.39242 45.2545 7.60734 45.0396 7.60734 44.7745V43.4003H8.98125C9.24633 43.4003 9.46125 43.1854 9.46125 42.9203C9.46125 42.6553 9.24633 42.4403 8.98125 42.4403Z" fill="black"/>
<path d="M40.06 13.1498C40.325 13.1498 40.54 12.9349 40.54 12.6698V11.3074H41.9024C42.1675 11.3074 42.3824 11.0925 42.3824 10.8274C42.3824 10.5623 42.1675 10.3474 41.9024 10.3474H40.54V8.98476C40.54 8.71968 40.325 8.50476 40.06 8.50476C39.7949 8.50476 39.58 8.71968 39.58 8.98476V10.3474H38.2173C37.9522 10.3474 37.7373 10.5623 37.7373 10.8274C37.7373 11.0925 37.9522 11.3074 38.2173 11.3074H39.58V12.6698C39.58 12.9349 39.7949 13.1498 40.06 13.1498Z" fill="black"/>
<path d="M8.43984 12.4451C8.70492 12.4451 8.91984 12.2302 8.91984 11.9651V10.6025H10.2825C10.5476 10.6025 10.7625 10.3875 10.7625 10.1225C10.7625 9.85739 10.5476 9.64247 10.2825 9.64247H8.91984V8.28005C8.91984 8.01497 8.70492 7.80005 8.43984 7.80005C8.17477 7.80005 7.95984 8.01497 7.95984 8.28005V9.64247H6.59719C6.33211 9.64247 6.11719 9.85739 6.11719 10.1225C6.11719 10.3875 6.33211 10.6025 6.59719 10.6025H7.95984V11.9651C7.95984 12.2302 8.17477 12.4451 8.43984 12.4451Z" fill="black"/>
<path d="M42.7266 43.3974H41.3642V42.0349C41.3642 41.7699 41.1493 41.5549 40.8842 41.5549C40.6191 41.5549 40.4042 41.7699 40.4042 42.0349V43.3974H39.0415C38.7764 43.3974 38.5615 43.6123 38.5615 43.8774C38.5615 44.1424 38.7764 44.3574 39.0415 44.3574H40.4042V45.72C40.4042 45.9851 40.6191 46.2 40.8842 46.2C41.1493 46.2 41.3642 45.9851 41.3642 45.72V44.3574H42.7266C42.9917 44.3574 43.2066 44.1424 43.2066 43.8774C43.2066 43.6123 42.9917 43.3974 42.7266 43.3974Z" fill="black"/>
<path d="M32.1003 7.94067C32.0103 7.85067 31.8882 7.80005 31.7609 7.80005H16.2526C16.1253 7.80005 16.0032 7.85067 15.9132 7.94067L4.94727 18.9066C4.85727 18.9966 4.80664 19.1187 4.80664 19.246V34.7541C4.80664 34.8814 4.85727 35.0035 4.94727 35.0935L15.9132 46.0594C16.0032 46.1494 16.1253 46.2 16.2526 46.2H31.7609C31.8882 46.2 32.0103 46.1494 32.1003 46.0594L43.066 35.0935C43.156 35.0035 43.2066 34.8814 43.2066 34.7541V19.246C43.2066 19.1187 43.156 18.9966 43.066 18.9066L32.1003 7.94067ZM31.9427 44.8595L28.2737 36.0232L33.0441 31.253L41.8927 34.9093L31.9427 44.8595ZM6.13739 34.9261L14.9835 31.2533L19.7539 36.0235L16.0933 44.882L6.13739 34.9261ZM5.76664 19.9637L14.6159 23.6203V30.3667L5.76664 34.0408V19.9637ZM16.0846 9.12673L19.7536 17.963L14.9832 22.7333L6.13449 19.0769L16.0846 9.12673ZM41.8702 19.0683L33.0438 22.733L28.2734 17.9628L31.9259 9.1238L41.8702 19.0683ZM27.5087 35.4307H20.5187L15.5759 30.4883V23.498L20.5187 18.5555H27.5087L32.4514 23.498V30.4883L27.5087 35.4307ZM27.3864 17.5955H20.6402L16.9716 8.76005H31.0374L27.3864 17.5955ZM20.641 36.3907H27.3871L31.0615 45.24H16.9842L20.641 36.3907ZM33.4114 30.3659V23.6196L42.2466 19.9512V34.0168L33.4114 30.3659Z" fill="black"/>
<path d="M26.3213 21.9026C26.1338 21.7151 25.8301 21.7151 25.6426 21.9026C25.4551 22.0901 25.4551 22.3938 25.6426 22.5813L28.2852 25.2239V28.961C28.2852 29.2261 28.5001 29.441 28.7652 29.441C29.0302 29.441 29.2452 29.2261 29.2452 28.961V25.0252C29.2452 24.8979 29.1945 24.7758 29.1045 24.6858L26.3213 21.9026Z" fill="black"/>
</svg>
