<?xml version="1.0" encoding="utf-8"?>
<!-- Generator: Adobe Illustrator 19.0.1, SVG Export Plug-In . SVG Version: 6.00 Build 0)  -->
<svg version="1.1" id="Слой_1" xmlns="http://www.w3.org/2000/svg" xmlns:xlink="http://www.w3.org/1999/xlink" x="0px" y="0px"
	 viewBox="0 0 16 16" style="enable-background:new 0 0 16 16;" xml:space="preserve">
<style type="text/css">
	.st0{fill:#1D1D1B;}
</style>
<path class="st0" d="M0,0.3h7.1v0.9h-1c-0.2,0-0.4,0-0.6,0.1C5.4,1.4,5.3,1.7,5.3,2.1v5.7l4.1-4.3c0.8-0.9,1.2-1.5,1.2-1.9
	c0-0.3-0.2-0.4-0.6-0.4h-1V0.3h6.1v0.9h-0.7c-0.5,0-1.1,0.2-1.7,0.7c-0.9,0.7-1.7,1.4-2.5,2.2C9.3,5,8.6,5.7,8.1,6.2l6.1,7.4
	c0.2,0.3,0.5,0.6,0.9,0.8c0.3,0.2,0.6,0.3,0.9,0.2v0.9h-4.5L5.9,8.5L5.3,9.1v4.7c0,0.4,0.1,0.6,0.2,0.7c0.2,0.1,0.4,0.2,0.6,0.1h1
	v0.9H0v-0.9h1c0.2,0,0.4,0,0.6-0.1c0.1-0.1,0.2-0.3,0.2-0.7V2c0-0.4-0.1-0.6-0.2-0.7C1.5,1.2,1.2,1.2,1,1.2H0V0.3z"/>
</svg>
