<svg width="38" height="48" viewBox="0 0 38 48" fill="none" xmlns="http://www.w3.org/2000/svg">
<path d="M18.3226 0.0122168C8.85983 0.346832 0.998623 7.7871 0.0904341 17.2843C-0.0951099 19.1837 0.0123105 21.0241 0.344337 22.7857C0.344337 22.7857 0.373633 22.9924 0.471288 23.3861C0.764252 24.7049 1.2037 25.9843 1.75056 27.185C3.65483 31.7318 8.05906 39.3394 17.9417 47.6162C18.5472 48.1279 19.4358 48.1279 20.0511 47.6162C29.9337 39.3492 34.3379 31.7416 36.252 27.1751C36.8086 25.9744 37.2383 24.7049 37.5313 23.3762C37.6191 22.9924 37.6582 22.7759 37.6582 22.7759C37.8828 21.5949 38 20.3844 38 19.1443C38 8.33823 29.1232 -0.371607 18.3226 0.0122168Z" fill="#BE9948"/>
<g clip-path="url(#clip0)">
<path d="M28.9386 15.276C25.4765 10.8369 25.6242 10.9481 25.4393 10.93L20.02 10.2C18.6539 10.016 17.726 10.2552 17.2522 10.2981C17.0932 10.3195 16.9816 10.4657 17.003 10.6248C17.0244 10.7838 17.1709 10.8956 17.3297 10.874C17.8103 10.8299 18.6721 10.6049 19.9425 10.7759L23.6639 11.2772C23.3854 11.3339 19.2786 12.1708 18.9999 12.2276L14.336 11.2772L15.9481 11.06C16.1072 11.0386 16.2187 10.8923 16.1973 10.7333C16.1759 10.5743 16.0293 10.4627 15.8706 10.4841L12.5608 10.9299C12.5604 10.93 12.5599 10.93 12.5594 10.9301L12.5551 10.9307C12.5506 10.9313 12.5463 10.9323 12.5419 10.9331C12.539 10.9337 12.5361 10.9341 12.5333 10.9347C12.5309 10.9352 12.5285 10.9357 12.5262 10.9363C12.5228 10.9371 12.5196 10.9381 12.5163 10.939C12.5112 10.9404 12.5061 10.9417 12.5011 10.9434C12.499 10.9441 12.4971 10.945 12.495 10.9457C12.4941 10.946 12.4932 10.9464 12.4924 10.9467C12.4895 10.9478 12.4865 10.9488 12.4836 10.95C12.4784 10.9521 12.4733 10.9545 12.4682 10.957C12.466 10.958 12.4638 10.959 12.4616 10.9601C12.4592 10.9613 12.4568 10.9625 12.4544 10.9638C12.4521 10.9651 12.4499 10.9665 12.4476 10.9679C12.3214 11.0414 12.383 11.0466 9.06145 15.2759C8.99238 15.3645 8.98051 15.4849 9.03105 15.5853C9.14801 15.8173 8.83695 15.3593 15.249 23.8705C15.3456 23.9986 15.5278 24.0241 15.656 23.9275C15.784 23.8308 15.8095 23.6486 15.7129 23.5205L10.0809 16.0558L14.6318 17.4893C14.7409 17.7771 18.0743 26.5692 18.1361 26.7323L16.5325 24.6069C16.4359 24.4787 16.2537 24.4533 16.1256 24.5499C15.9974 24.6466 15.972 24.8287 16.0686 24.9569C17.7478 27.182 17.9208 27.4126 17.9327 27.426C18.1449 27.6651 18.4383 27.8163 18.7189 27.8637C18.7604 27.8708 19.2473 27.8706 19.288 27.8627C19.6418 27.794 19.9407 27.5941 20.0818 27.4083L25.7534 19.891C25.85 19.7629 25.8245 19.5807 25.6964 19.484C25.5682 19.3875 25.3861 19.4129 25.2895 19.541L19.8637 26.7324C20.037 26.2753 23.2408 17.8253 23.3681 17.4893L27.919 16.0559L26.1062 18.4585C26.0096 18.5867 26.035 18.7688 26.1632 18.8655C26.2913 18.9621 26.4735 18.9367 26.5701 18.8085C29.0038 15.5799 28.8727 15.7756 28.9687 15.5858C29.0195 15.4853 29.0077 15.3647 28.9386 15.276ZM19 12.9649L22.5054 16.9639H15.4946L19 12.9649ZM9.74726 15.3415L12.5037 11.8067L14.3725 16.7985L9.74726 15.3415ZM13.0499 11.6081C13.6252 11.7254 17.7504 12.5661 18.4516 12.7089L14.9552 16.6976L13.0499 11.6081ZM19.0321 27.2869H18.9679L15.2744 17.545H22.7256L19.0321 27.2869ZM23.0447 16.6976L19.5483 12.7089C20.0134 12.6141 24.2348 11.7539 24.95 11.6081L23.0447 16.6976ZM23.6274 16.7984L25.4962 11.8066L28.2527 15.3415L23.6274 16.7984Z" fill="white"/>
</g>
<defs>
<clipPath id="clip0">
<rect width="20" height="20" fill="white" transform="translate(9 9)"/>
</clipPath>
</defs>
</svg>
