<?xml version="1.0" standalone="no"?>
<!DOCTYPE svg PUBLIC "-//W3C//DTD SVG 1.1//EN" "http://www.w3.org/Graphics/SVG/1.1/DTD/svg11.dtd" >
<svg xmlns="http://www.w3.org/2000/svg" xmlns:xlink="http://www.w3.org/1999/xlink" version="1.1">
<metadata>
Created by FontForge 20161003 at Tue Jun 13 07:51:57 2017
 By www-data
(c) 1993 "ATRI"Graphic Bureau "Az-Zet"(R) (c) 2001 N. Andrushchenko
</metadata>
<defs>
<font id="Elegants" horiz-adv-x="2032" >
  <font-face 
    font-family="Elegants"
    font-weight="400"
    font-stretch="normal"
    units-per-em="4096"
    panose-1="2 0 5 6 0 0 0 2 0 3"
    ascent="3276"
    descent="-820"
    x-height="1724"
    cap-height="2765"
    bbox="-1142 -1085 3998 3772"
    underline-thickness="41"
    underline-position="-101"
    unicode-range="U+000D-F7B4"
  />
<missing-glyph horiz-adv-x="3072" 
d="M512 0v2560h2048v-2560h-2048zM2494 66v2428h-1916v-2428h1916z" />
    <glyph glyph-name=".notdef" horiz-adv-x="3072" 
d="M512 0v2560h2048v-2560h-2048zM2494 66v2428h-1916v-2428h1916z" />
    <glyph glyph-name=".null" horiz-adv-x="0" 
 />
    <glyph glyph-name=".null" horiz-adv-x="0" 
 />
    <glyph glyph-name="nonmarkingreturn" unicode="&#xd;" horiz-adv-x="1552" 
 />
    <glyph glyph-name="space" unicode=" " horiz-adv-x="1552" 
 />
    <glyph glyph-name="exclam" unicode="!" horiz-adv-x="905" 
d="M762 266q0 -123 -89 -211t-210 -88q-119 0 -203 88t-84 211q0 131 83.5 223.5t203.5 92.5q122 0 210.5 -92.5t88.5 -223.5zM102 2302q0 9 -2 34t-2 36q0 214 123 322t258 108q144 0 268.5 -94.5t124.5 -311.5q0 -10 -4 -43t-4 -51q-18 -120 -83 -338t-126.5 -425
t-102 -407.5t-40.5 -373.5h-66q0 221 -55 444t-166 599.5t-123 500.5z" />
    <glyph glyph-name="quotedbl" unicode="&#x22;" horiz-adv-x="1332" 
d="M875 1737l-92 538v490h410v-490l-96 -538h-222zM211 1737l-92 538v490h410v-490l-96 -538h-222z" />
    <glyph glyph-name="numbersign" unicode="#" horiz-adv-x="2118" 
d="M922 1638l-50 -442h402l61 442h-413zM1892 1044h-495l-135 -1044h-127l118 1044h-397l-135 -1044h-143l127 1044h-525v152h541l61 442h-516v156h529l123 979h139l-115 -979h410l127 979h127l-111 -979h479v-156h-508l-49 -442h475v-152z" />
    <glyph glyph-name="dollar" unicode="$" horiz-adv-x="2286" 
d="M1221 4q236 6 378 154t142 395q-24 182 -156 293.5t-364 210.5v-1053zM1126 12v1086q-209 84 -334.5 148.5t-226.5 166.5q-291 284 -291 586q0 233 99 419.5t273 291t394 104.5q11 0 33 -2t33 -2v364h98v-381q292 -48 516 -274q63 70 119 283h66v-885h-70
q-58 303 -223.5 524t-407.5 271v-1029l234 -102q317 -165 467.5 -357.5t150.5 -457.5v-33q-64 -790 -835 -790v-439h-95v439q-160 11 -289 65.5t-214 123t-160 147.5q-16 -65 -68 -171t-59 -128q0 -3 -2 -12t-2 -13h-74v1028h66q47 -234 157 -447t277.5 -357t367.5 -167z
M1106 1733v991q-3 0 -14 4t-15 4q-218 0 -344.5 -89.5t-126.5 -270.5q0 -213 93 -349.5t345 -261.5z" />
    <glyph glyph-name="percent" unicode="%" horiz-adv-x="2851" 
d="M2138 2822l-1266 -2867h-131l1274 2867h123zM1896 643q0 -245 17.5 -375.5t61 -180.5t126.5 -50q88 0 132 51.5t60.5 180.5t16.5 390q0 305 -14.5 443t-54.5 187.5t-127 49.5q-92 0 -137.5 -56t-63 -205t-17.5 -435zM2101 -12q-148 0 -263 88.5t-180 247t-65 356.5
q0 184 71.5 352.5t189.5 268.5t251 100q137 0 255 -96t187.5 -262.5t69.5 -358.5q0 -189 -70.5 -348.5t-189 -253.5t-256.5 -94zM242 2064q0 191 70.5 356.5t189 263t252.5 97.5q140 0 257 -94t184 -254.5t67 -355.5q0 -188 -70.5 -353t-187.5 -262.5t-250 -97.5
q-143 0 -261 92t-184.5 253.5t-66.5 354.5zM758 2724q-91 0 -136.5 -55t-63 -202.5t-17.5 -434.5q0 -251 18 -380t63.5 -180t131.5 -51q82 0 125.5 51.5t61 183.5t17.5 384q0 297 -15 441.5t-55.5 193.5t-129.5 49z" />
    <glyph glyph-name="ampersand" unicode="&#x26;" horiz-adv-x="2679" 
d="M586 1065q0 -3 -2 -21t-2 -24q0 -164 55.5 -313t159 -243.5t239.5 -98.5q96 0 164 36t131 160l-553 918q-85 -67 -125 -128t-49.5 -114t-17.5 -172zM885 2462q0 -107 40.5 -204.5t120 -227t109.5 -187.5q129 71 178.5 184.5t63.5 286.5q0 164 -79 283t-196 119
q-104 0 -170.5 -71t-66.5 -183zM2703 578q-94 -330 -246.5 -464t-379.5 -134q-187 0 -375 154.5t-330 365.5q-99 -166 -182 -271.5t-209.5 -177t-304.5 -71.5h-41q-240 23 -376 189.5t-136 387.5q0 10 1.5 27.5t5 37t5.5 34t4 36.5q64 458 606 832q-225 384 -225 655
q0 175 71.5 318t195.5 224t278 81q178 0 287.5 -127.5t109.5 -335.5v-21q0 -188 -68 -306.5t-202 -237.5l442 -717q114 188 216 290t192 137.5t194 35.5q136 -37 192.5 -117t70.5 -199q0 -131 -84 -219t-191 -88q-2 0 -12 -2t-12 -2q-88 0 -155 67t-67 158q0 16 7.5 44.5
t9.5 37.5q20 63 20 74q0 45 -53 45q-93 0 -279 -307q70 -100 124.5 -185t76.5 -122q115 -155 165.5 -217.5t127.5 -117.5t158 -55q86 0 135 19.5t89.5 81.5t90.5 198z" />
    <glyph glyph-name="quotesingle" unicode="'" horiz-adv-x="668" 
d="M211 1737l-92 538v490h410v-490l-96 -538h-222z" />
    <glyph glyph-name="parenleft" unicode="(" horiz-adv-x="905" 
d="M406 1831q-132 -428 -132 -930q0 -343 70.5 -667.5t211.5 -622.5t349 -557l-106 -131q-168 217 -259 362.5t-155.5 303t-130.5 391.5q-139 442 -139 905q0 276 46 540.5t135.5 522.5t216.5 495t286 453l106 -115q-219 -293 -315 -475.5t-184 -474.5z" />
    <glyph glyph-name="parenright" unicode=")" horiz-adv-x="905" 
d="M606 905q0 253 -40.5 501.5t-121 487.5t-197 458.5t-263.5 408.5l98 135q230 -313 334 -513t211 -540q139 -460 139 -921q0 -273 -46 -542t-134 -519.5t-214.5 -484.5t-289.5 -453l-98 119q212 294 348.5 580.5t205 602t68.5 680.5z" />
    <glyph glyph-name="asterisk" unicode="*" horiz-adv-x="1901" 
d="M680 2662q0 17 10.5 33.5t26.5 16.5q23 0 52 -16.5t50 -16.5q18 0 29 27t23.5 81t26 81.5t40.5 27.5q39 0 55.5 -28.5t27 -86t20.5 -82t36 -24.5q22 0 57 18.5t50 18.5q9 0 21 -18t12 -32q0 -5 -25 -57q-217 -280 -217 -594v-12q317 143 450 381q10 17 21 34.5t25.5 28.5
t31.5 11q41 0 41 -58q17 -80 24.5 -91t73.5 -11h54q90 0 90 -53q0 -30 -19 -51t-56.5 -45t-55 -42.5t-17.5 -46.5q0 -21 29 -53t29 -61q0 -41 -54 -41q-19 0 -161.5 40.5t-235.5 40.5q-90 0 -132.5 -6.5t-113.5 -33.5q77 -113 202.5 -204.5t260.5 -135.5q99 -24 99 -66
q0 -30 -29.5 -42t-59.5 -24t-30 -45q0 -32 20.5 -91.5t20.5 -96.5q0 -41 -41 -41q-34 0 -67 28t-66.5 55.5t-67.5 27.5q1 0 -37.5 -51.5t-64.5 -51.5q-45 0 -45 82v45q0 179 -30 319t-118 255q-168 -258 -168 -508q0 -33 8 -99v-12q0 -74 -45 -74q-34 0 -49 33
q-44 62 -53 62q-32 0 -64 -27.5t-64.5 -55.5t-64.5 -28q-18 0 -33.5 14.5t-15.5 34.5q0 38 24.5 103.5t24.5 105.5q0 20 -16 26.5t-48 11.5t-47.5 14.5t-15.5 33.5q0 43 78 66q141 23 272.5 116.5t223.5 219.5q-141 40 -291 40q-73 0 -191.5 -38.5t-172.5 -38.5
q-45 0 -45 37q0 28 36.5 60.5t36.5 57.5q0 18 -21.5 36t-61 44t-60.5 49t-21 52q0 20 27.5 38.5t67.5 18.5q13 0 42 -6t44 -6q69 0 69 106q0 66 41 66q20 0 62 -54q193 -328 458 -405q0 165 -50.5 304.5t-116.5 247.5t-66 111z" />
    <glyph glyph-name="plus" unicode="+" horiz-adv-x="2073" 
d="M1958 1319h-864v-959h-119v959h-856v135h856v959h119v-959h864v-135z" />
    <glyph glyph-name="comma" unicode="," horiz-adv-x="823" 
d="M627 57q-102 -94 -221 -94q-115 0 -203 90.5t-88 212.5q0 126 86.5 221t195.5 95q159 0 251.5 -120t92.5 -327q0 -195 -68.5 -357t-195.5 -269.5t-301 -151.5l-12 70q463 138 463 630z" />
    <glyph glyph-name="hyphen" unicode="-" horiz-adv-x="1253" 
d="M1040 721h-925l139 352h917z" />
    <glyph glyph-name="period" unicode="." horiz-adv-x="823" 
d="M414 594q124 0 211.5 -92.5t87.5 -227.5q0 -128 -87.5 -217.5t-211.5 -89.5q-121 0 -210 90t-89 217q0 134 89 227t210 93z" />
    <glyph glyph-name="slash" unicode="/" horiz-adv-x="995" 
d="M-254 -1032l1057 3883h172l-1061 -3883h-168z" />
    <glyph glyph-name="zero" unicode="0" 
d="M999 1794q234 0 440.5 -123.5t329.5 -334t123 -451.5q0 -250 -121.5 -461.5t-329.5 -334t-446 -122.5q-241 0 -442.5 119t-317.5 324.5t-116 453.5q0 252 119.5 466.5t323 339t437.5 124.5zM1401 877q-14 267 -37 427t-107 292.5t-253 140.5q-184 -10 -272 -146
t-108 -307t-22 -407q2 -257 19 -416.5t104.5 -294.5t278.5 -146q170 5 255 137.5t106 287.5t36 432z" />
    <glyph glyph-name="one" unicode="1" horiz-adv-x="1171" 
d="M795 61h200v-61h-815v61h193v1610h-193v66h811v-66h-196v-1610z" />
    <glyph glyph-name="two" unicode="2" horiz-adv-x="1724" 
d="M1524 1262q0 -215 -146.5 -332.5t-410.5 -175.5q-189 -44 -368 -141.5t-234 -186.5q8 0 26 -2t27 -2q126 0 366 -8t338 -8q218 0 361 40l33 168h57q-37 -173 -37 -295q0 -36 2 -109t2 -108v-102l-45 4l-37 123q-205 -139 -512 -139q-163 0 -314.5 49.5t-250.5 138.5
q-30 25 -78 25q-50 0 -86.5 -59.5t-36.5 -125.5q0 -2 2 -13t2 -15h-65q60 319 192.5 463.5t339.5 237.5t296 177.5t89 309.5v86q0 178 -83 297.5t-253 119.5h-41l-12 -4q-77 0 -148 -48.5t-115 -121.5t-44 -141l4 -4q14 -66 57 -66l13 4h20q59 0 106.5 -34t53.5 -101v-20
q0 -64 -41.5 -115.5t-97.5 -60.5q-6 0 -13 -2t-8 -2q-167 0 -180 237q0 9 -4 27t-4 26q0 103 54 204.5t145.5 174.5t197.5 101q150 32 283 32q163 0 299 -52.5t217.5 -166.5t81.5 -284z" />
    <glyph glyph-name="three" unicode="3" horiz-adv-x="1683" 
d="M487 1733q146 32 279 32q163 0 301 -53t221.5 -167t83.5 -283q-17 -134 -88 -228.5t-186 -158.5t-283 -121q-101 -27 -229 -78q156 16 217 16q330 0 501 -168t171 -450v-78q-56 -364 -266 -600t-517 -342q-229 -86 -557 -86q-28 0 -86 4t-86 4l-20 66q28 -4 70.5 -10
t88 -10.5t95.5 -4.5q254 0 463.5 151.5t277.5 552.5q16 190 16 267q0 222 -56 366t-141.5 208.5t-174.5 64.5h-37q-77 -19 -109.5 -48.5t-53 -80t-30.5 -64.5q-11 -13 -36.5 -33t-53.5 -20q-34 0 -65 45q0 4 -2 11t-2 9q0 65 143 148q38 27 113 64t116 55
q121 51 186.5 114.5t92 151.5t37.5 233v45q0 189 -85.5 305.5t-234.5 116.5h-57q-80 -12 -147 -60.5t-105.5 -115t-38.5 -131.5q0 -5 2 -10t2 -6q7 -62 49 -62l17 4h41q127 0 143 -127v-20q0 -64 -39 -110t-96 -58q-80 7 -144.5 60t-64.5 133q0 2 2 10t2 10t-2 13t-2 12
q0 177 99.5 317t264.5 195z" />
    <glyph glyph-name="four" unicode="4" horiz-adv-x="1724" 
d="M1360 -541h201v-61h-816v61h193v541h-885q158 454 384.5 928.5t487 921.5t509.5 808q47 78 110 78q35 0 58 -16q36 -37 36 -78q0 -40 -57 -102q-170 -208 -374.5 -503t-406.5 -636.5t-367.5 -684.5t-268.5 -655h774v512h-172v66h790v-66h-196v-512h196v-61h-196v-541z
" />
    <glyph glyph-name="five" unicode="5" horiz-adv-x="1642" 
d="M1163 1671q8 0 17 -4t12 -4q147 0 147 156v36h62v-40q0 -537 -483 -537q-3 0 -11 2t-10 2q-262 22 -537 78q17 -97 17 -238q0 -249 -53 -385q38 25 113.5 57t140.5 58q98 8 155 8q231 0 392 -111t239 -289.5t78 -381.5v-82q-54 -354 -250.5 -560.5t-532.5 -353.5
q-241 -106 -581 -106h-144l-20 66q52 -9 152 -9q158 0 320.5 58t309.5 221t217 450q33 220 33 381q0 296 -100 459.5t-252 163.5h-62q-75 0 -116 -39t-93.5 -110.5t-80.5 -71.5q-24 0 -58 41q0 4 -2 11t-2 9q0 57 78 107q57 142 57 405q0 274 -53 594q238 29 402 29
q123 0 198 -14t164 -39t129 -25z" />
    <glyph glyph-name="six" unicode="6" horiz-adv-x="1942" 
d="M1004 -20q-279 18 -475 144.5t-295 341t-99 492.5q0 197 62 463q118 363 334 647t546 466t766 231l21 -53q-310 -20 -538.5 -145t-372.5 -328t-214.5 -455t-83.5 -551q57 76 158 134.5t186 74.5q41 4 127 4q191 0 345.5 -84.5t244.5 -250t94 -398.5q-27 -338 -249 -532.5
t-557 -200.5zM1360 684q-9 297 -72.5 484t-283.5 192q-168 -8 -249 -115t-99.5 -228.5t-28.5 -332.5q7 -192 26.5 -313.5t99.5 -220.5t246 -109q158 10 233 106t94 208.5t34 328.5z" />
    <glyph glyph-name="seven" unicode="7" horiz-adv-x="1597" 
d="M418 -438q0 -13 -6 -42t-6 -40q0 -52 20 -182t20 -216v-24q-9 -65 -45 -98t-82 -33q-51 0 -94 37q-53 68 -53 159q0 45 17 130.5t24 128.5q55 243 193.5 498.5t343.5 538t350.5 480.5t197.5 313h-36q-152 0 -417.5 16.5t-381.5 16.5q-167 0 -246 -24l-45 -168l-57 4
q28 133 28 348v192q0 20 2 68t2 68h58l33 -127q183 135 487 135q169 0 326 -49.5t256 -139.5q32 -16 65 -16q59 0 95 53t36 123v29l78 -4q-45 -271 -185.5 -506t-405 -584t-401 -584t-171.5 -501z" />
    <glyph glyph-name="eight" unicode="8" horiz-adv-x="1724" 
d="M1106 1343q-552 -250 -590 -700q0 -15 -2 -46t-2 -44q0 -218 98.5 -350t270.5 -158q8 0 23 -2t22 -2q227 0 398.5 153t174.5 539q0 197 -110.5 353.5t-282.5 256.5zM1180 1393q186 -141 293 -278t120 -382q-6 -327 -186 -542.5t-510 -215.5h-4q-221 0 -397 91t-274.5 257
t-98.5 377q0 12 -2 31t-2 27q0 247 112 425.5t355 393.5q-320 219 -320 561q0 2 -2 8t-2 8q0 174 62.5 315t204 230t368.5 103q198 0 348 -76t237 -221.5t99 -341.5q0 -255 -92 -427.5t-309 -342.5zM655 1618q85 51 170.5 103.5t148.5 102.5t119.5 125t90.5 173
q28 107 28 188q0 175 -96 294.5t-235 119.5h-66q-200 0 -345.5 -139t-145.5 -431q0 -206 89 -328.5t242 -207.5z" />
    <glyph glyph-name="nine" unicode="9" horiz-adv-x="2159" 
d="M1012 1782q277 -18 472.5 -146t293.5 -344t98 -493q0 -206 -57 -459q-189 -567 -595.5 -935.5t-1051.5 -440.5l-8 69q313 20 538 147t366.5 332.5t211 463t80.5 556.5q-58 -81 -154.5 -137.5t-189.5 -75.5q-123 -12 -135 -12q-191 0 -342.5 87t-240.5 257t-93 402
q18 223 125.5 387t283 250.5t398.5 91.5zM655 1077q7 -192 28 -325.5t98.5 -239.5t230.5 -111q167 8 248 115.5t98.5 230.5t25.5 330q-2 175 -22 306t-100.5 229t-245.5 108q-158 -10 -233 -106t-94 -208.5t-34 -328.5z" />
    <glyph glyph-name="colon" unicode=":" horiz-adv-x="864" 
d="M721 1434q0 -131 -89 -225.5t-210 -94.5q-123 0 -211 94.5t-88 225.5q0 129 88 224t211 95q121 0 210 -95t89 -224zM422 594q122 0 210.5 -92.5t88.5 -227.5q0 -128 -88.5 -217.5t-210.5 -89.5q-124 0 -211.5 89.5t-87.5 217.5q0 135 87.5 227.5t211.5 92.5z" />
    <glyph glyph-name="semicolon" unicode=";" horiz-adv-x="905" 
d="M733 1434q0 -131 -89 -225.5t-210 -94.5t-210 95t-89 225q0 128 89.5 223.5t209.5 95.5q121 0 210 -95t89 -224zM164 -573q463 138 463 630q-102 -94 -221 -94q-115 0 -203 90.5t-88 212.5q0 126 86.5 221t195.5 95q159 0 251.5 -120t92.5 -327q0 -195 -68.5 -357
t-195.5 -269.5t-301 -151.5z" />
    <glyph glyph-name="less" unicode="&#x3c;" 
d="M2105 2433l-1540 -848l1512 -811v-508l-1905 1077v140l1933 1052v-102z" />
    <glyph glyph-name="equal" unicode="=" horiz-adv-x="2159" 
d="M1954 1073h-1839v131h1839v-131zM1954 1696v-131h-1839v131h1839z" />
    <glyph glyph-name="greater" unicode="&#x3e;" horiz-adv-x="2204" 
d="M119 393l1540 844l-1512 815v504l1909 -1077v-140l-1937 -1052v106z" />
    <glyph glyph-name="question" unicode="?" horiz-adv-x="1724" 
d="M844 254q0 -124 -79 -205.5t-192 -81.5q-124 0 -205 81t-81 206q0 122 81.5 206.5t204.5 84.5q111 0 191 -85.5t80 -205.5zM512 692v742q0 115 82.5 192.5t266 204t278 242.5t94.5 286q0 105 -73 198.5t-193 148.5t-254 55q-146 0 -249.5 -65t-103.5 -152q0 -33 25 -33
q4 0 11 2t10 2q118 0 206 -74.5t88 -195.5q0 -124 -78.5 -205.5t-195.5 -81.5q-144 0 -236 101.5t-92 262.5q0 144 87.5 258.5t244.5 178t352 63.5q220 0 388 -88.5t257 -248.5t89 -367q0 -233 -104.5 -441.5t-276.5 -316.5l-381 -246q-172 -118 -172 -422h-70z" />
    <glyph glyph-name="at" unicode="@" horiz-adv-x="2937" 
d="M1819 1761q4 4 4 21q0 166 -63 255t-183 89q-309 0 -483 -533q-136 -422 -136 -688q0 -282 201 -282q145 0 290.5 156t209.5 376zM1933 2142h328l-336 -1257q-20 -75 -20 -119q0 -107 73 -107q75 0 205 103q182 147 296 390.5t114 473.5q0 307 -148 559t-407.5 395.5
t-575.5 143.5q-331 0 -618 -181.5t-455 -492t-168 -674.5q0 -360 162 -669t438 -489.5t600 -180.5q371 0 692.5 221.5t426.5 544.5h118l-20 -37q-65 -186 -186.5 -337.5t-283.5 -258.5t-354.5 -165t-396.5 -58q-347 0 -646 189.5t-473.5 515.5t-174.5 712q0 390 183 729
t492.5 538t663.5 199q346 0 628 -156t443.5 -429.5t161.5 -606.5q0 -288 -117.5 -539.5t-332.5 -418.5q-187 -143 -361 -143q-120 0 -202.5 71.5t-96.5 186.5q-206 -263 -450 -263q-144 0 -256.5 77.5t-174 220t-61.5 325.5q0 250 131 502t347.5 413.5t455.5 161.5
q110 0 176.5 -50t122.5 -171z" />
    <glyph glyph-name="A" unicode="A" horiz-adv-x="2417" 
d="M1352 995l-320 1098l-356 -1098h676zM1319 2830l840 -2756h254v-74h-1115v66h324l-238 847h-737l-131 -417q-37 -115 -37 -209q0 -11 2 -32t2 -30q10 -76 65 -117.5t132 -41.5h86v-66h-823v61q8 0 29 -2t28 -2q8 0 24 2t21 2q130 33 203 110t108.5 168.5t65.5 172.5
l762 2318h135z" />
    <glyph glyph-name="B" unicode="B" horiz-adv-x="2503" 
d="M233 2765h1070q246 0 434 -40.5t323.5 -176t155.5 -398.5q0 -423 -455 -614q-156 -68 -225 -78q38 -6 106 -8t99 -8q234 -51 352.5 -154.5t157 -223t67.5 -319.5q-32 -384 -260.5 -562.5t-779.5 -178.5h-1045v74h312v2605h-312v82zM1057 1491h217l4 -8q70 0 146 34
t112 56q68 69 101 126.5t46 144t13 237.5v45q0 248 -69.5 370t-173 154.5t-253.5 32.5h-143v-1192zM1057 78q10 0 30 -2t27 -2q249 0 369 35t183 174.5t67 449.5q0 276 -41 415.5t-149 196t-322 56.5h-164v-1323z" />
    <glyph glyph-name="C" unicode="C" horiz-adv-x="2417" 
d="M1339 2736q-257 -14 -366 -174t-150 -481q-37 -474 -37 -717q0 -445 70 -786q35 -230 161 -378.5t306 -166.5q238 5 451 180q152 124 257.5 325t143.5 445h70v-1024h-107q-64 152 -91 205t-73 53q-12 0 -123.5 -76t-239.5 -131t-276 -55h-41q-236 0 -438.5 120
t-350.5 327t-228 466.5t-80 528.5q12 402 156.5 725.5t389 505.5t543.5 182q19 0 55 2t52 2q300 0 561 -201q13 -20 28 -20q40 0 95.5 73.5t81.5 131.5h73v-996h-61q-57 259 -124 442.5t-192 307.5q-89 80 -228 132t-271 52h-17z" />
    <glyph glyph-name="D" unicode="D" horiz-adv-x="2810" 
d="M1176 66q283 7 462.5 108.5t269 275t121 403.5t31.5 544q0 297 -26 511.5t-107 386.5t-249.5 274t-440.5 106h-180v-2609h119zM1176 -4h-938v70h307v2609h-307v86h999q314 -7 573 -107t444.5 -280.5t284.5 -428t99 -548.5q0 -236 -61.5 -455t-178 -400t-272.5 -300
q-172 -134 -391 -190t-559 -56z" />
    <glyph glyph-name="E" unicode="E" horiz-adv-x="2503" 
d="M2175 2757l-12 -766h-78q0 29 -47.5 155t-123.5 256t-161 191q-64 42 -131 57t-188 25h-377v-1176q45 0 126 -2t115 -2q166 0 257.5 31.5t138.5 134.5t47 317h78v-1097h-74q0 204 -34 309.5t-147 159.5t-347 55h-160v-1344h385q231 0 435.5 198t363.5 654h77l-24 -917
h-2061v70h312v2609h-312v82h1942z" />
    <glyph glyph-name="F" unicode="F" horiz-adv-x="2245" 
d="M2175 2761l-12 -766h-78q0 29 -47.5 155t-123.5 256t-161 191q-109 71 -319 82h-377v-1176q45 0 126 -2t115 -2q166 0 257.5 31.5t138.5 134.5t47 317h78v-1097h-74q0 206 -34 311.5t-146 159t-348 57.5h-160v-1347h385v-66h-1209v74h312v2605h-312v82h1942z" />
    <glyph glyph-name="G" unicode="G" horiz-adv-x="2720" 
d="M1315 33q164 0 314 64.5t190 189.5v745h-238v86h1012v-86h-312v-1016l-40 -12l-295 258q-96 -144 -251.5 -225.5t-342.5 -81.5h-58q-236 0 -438.5 120t-350.5 327t-228 466.5t-80 528.5q12 402 156.5 725.5t389 505.5t543.5 182q19 0 55 2t52 2q300 0 561 -201
q13 -20 28 -20q40 0 95.5 73.5t81.5 131.5h73v-996h-61q-57 259 -124 442.5t-192 307.5q-89 80 -228 132t-271 52h-17q-257 -14 -366 -174t-150 -481q-37 -474 -37 -717q0 -445 70 -786q32 -228 156.5 -376t302.5 -169z" />
    <glyph glyph-name="H" unicode="H" horiz-adv-x="3023" 
d="M1057 1413v-1347h307v-70h-1126v70h307v2609h-307v86h1126v-86h-307v-1180h917v1180h-311v86h1130v-86h-311v-2609h311v-70h-1130v70h311v1347h-917z" />
    <glyph glyph-name="I" unicode="I" horiz-adv-x="1597" 
d="M1057 66h307v-70h-1126v70h307v2609h-307v86h1126v-86h-307v-2609z" />
    <glyph glyph-name="J" unicode="J" horiz-adv-x="1597" 
d="M1212 479q0 -250 -35.5 -376.5t-136.5 -245.5q-219 -258 -585 -258q-233 0 -385 113t-152 288q0 121 73 210t169 89q102 0 169.5 -70t67.5 -176q0 -94 -41.5 -144.5t-100 -83.5t-58.5 -46q0 -46 71 -74.5t178 -28.5q151 0 202.5 102t51.5 288v2609h-307v86h1127v-86h-308
v-2196z" />
    <glyph glyph-name="K" unicode="K" horiz-adv-x="2896" 
d="M1057 1360l786 926q213 241 213 327q0 62 -131 62h-115v86h881v-86q-385 0 -676 -320l-454 -524l983 -1765h245v-70h-1126v70h254l-705 1359l-155 -188v-1171h307v-70h-1126v70h307v2609h-307v86h1126v-86h-307v-1315z" />
    <glyph glyph-name="L" unicode="L" horiz-adv-x="2376" 
d="M238 -4v70h307v2609h-307v86h1126v-86h-307v-2609h418q148 0 280 79.5t255.5 270t230.5 497.5h77l-24 -917h-2056z" />
    <glyph glyph-name="M" unicode="M" horiz-adv-x="3195" 
d="M627 647q0 -198 9.5 -256.5t47.5 -169.5q56 -160 221 -160h90v-65h-823v61q5 0 23 -2t26 -2q9 0 27 2t26 2q271 65 271 557v2061h-262v86h815l553 -1942l585 1942h762v-86h-262v-2609h262v-70h-999v70h254v2474l-758 -2544h-119l-749 2601v-1950z" />
    <glyph glyph-name="N" unicode="N" horiz-adv-x="3023" 
d="M627 2322v-1675q0 -198 9.5 -256.5t47.5 -169.5q56 -160 221 -160h90v-65h-823v61q5 0 23 -2t26 -2q9 0 27 2t26 2q271 65 271 557v1831l-144 226h-143v82h733l1266 -1934v1319q0 496 -275 561h-102v62h823v-66h-86q-166 0 -221 -160q-38 -107 -47.5 -167.5t-9.5 -262.5
v-2158h-127z" />
    <glyph glyph-name="O" unicode="O" horiz-adv-x="2810" 
d="M1397 12q171 6 303.5 89.5t195.5 238.5q119 370 119 1020q0 319 -33 717q-50 330 -176.5 498.5t-412.5 168.5q-192 -10 -308 -91t-175.5 -221.5t-90.5 -354.5q-37 -474 -37 -717q0 -271 26.5 -543t88.5 -477q107 -298 500 -328zM1397 -53q-259 0 -484 121.5t-388.5 329
t-252 467t-88.5 528.5q14 310 108.5 568.5t258 449.5t380.5 295t466 104q335 0 606.5 -181.5t433.5 -507t180 -728.5q0 -268 -91 -527.5t-255.5 -465.5t-389.5 -328t-484 -125z" />
    <glyph glyph-name="P" unicode="P" horiz-adv-x="2376" 
d="M545 82v2613h-312v70h1201q439 0 684 -185t245 -495l9 -4q0 -205 -100.5 -371.5t-297.5 -266.5t-475 -112h-442v-1249h274v-82h-1098v82h312zM1057 1413h282q275 30 377.5 179.5t102.5 451.5v70q0 266 -79.5 390.5t-217.5 157.5t-383 33h-82v-1282z" />
    <glyph glyph-name="Q" unicode="Q" horiz-adv-x="2761" 
d="M1139 -12q-274 73 -493 288.5t-340.5 515.5t-121.5 613q13 310 108 569.5t258 450t380.5 294t466.5 103.5q334 0 606 -181t434 -505.5t180 -730.5q0 -232 -65.5 -453.5t-189 -414t-294.5 -331.5t-372 -202l-45 -16v-221q0 -225 59 -395.5t195 -170.5l-4 -57l-140 25
q-143 29 -278 90q-116 46 -232 217.5t-116 457.5l4 9v45zM1384 41q393 21 512 315q119 365 119 1020q0 311 -33 717q-50 325 -176 488t-413 163q-191 -10 -307.5 -88t-176 -215.5t-90.5 -347.5q-37 -483 -37 -717q0 -648 115 -1020q103 -286 487 -315z" />
    <glyph glyph-name="R" unicode="R" horiz-adv-x="2851" 
d="M1405 2761q461 0 692 -140t275 -438v-65q0 -142 -70 -265.5t-191.5 -214t-279.5 -143.5l-213 -53q471 -21 647 -287q108 -134 131 -614q13 -432 238 -480q12 0 32 -4t29 -4q13 0 45 8l41 -81q-61 -21 -196 -21q-139 0 -250 21q-141 27 -254.5 127t-182 265t-75.5 369
q-11 258 -49.5 396.5t-135 203t-282.5 64.5h-275v-1331h312v-74h-1131v74h311v2605h-311l4 82h1139zM1081 1495h299q197 0 298.5 66.5t139 204t42.5 376.5q0 219 -58 334t-191 159t-378 44h-152v-1184z" />
    <glyph glyph-name="S" unicode="S" horiz-adv-x="2286" 
d="M1077 2732q-218 0 -344.5 -89.5t-126.5 -270.5q0 -213 93 -349.5t345 -261.5l394 -180q317 -165 467.5 -357.5t150.5 -457.5v-33q-64 -790 -831 -790h-13q-269 0 -435 95.5t-314 240.5q-16 -65 -68 -171t-59 -128q0 -3 -2 -12t-2 -13h-74v1028h66q53 -251 174 -474.5
t303.5 -364t402.5 -140.5q239 0 388 151t149 398q-19 178 -141 288.5t-302 186t-399 172t-334 213.5q-291 284 -291 586q0 233 99 419.5t273 291t394 104.5q418 0 680 -295q63 70 119 283h66v-885h-70q-40 225 -141.5 411.5t-259 295t-357.5 108.5z" />
    <glyph glyph-name="T" unicode="T" horiz-adv-x="2245" 
d="M864 2691h-65q-159 0 -280.5 -104.5t-206.5 -259t-189 -390.5h-86l45 836h2077l41 -836h-86q-114 257 -191 401.5t-197.5 248.5t-287.5 104h-62v-2613h316v-66h-1139v70h311v2609z" />
    <glyph glyph-name="U" unicode="U" horiz-adv-x="2896" 
d="M2376 1098q0 -360 -35 -533t-129 -323q-203 -336 -717 -336h-41q-310 32 -525.5 142.5t-332.5 332.5t-117 577v1713h-307v86h1126v-86h-307v-1651q0 -298 31.5 -501.5t160.5 -354t394 -160.5q320 7 479.5 176.5t198.5 387t39 497.5v1069q0 496 -275 561h-102v62h823v-66
h-86q-166 0 -221 -160q-38 -107 -47.5 -167.5t-9.5 -262.5v-1003z" />
    <glyph glyph-name="V" unicode="V" horiz-adv-x="2552" 
d="M823 2695l594 -2023l516 1593q29 104 29 205v65q-6 75 -62.5 117.5t-134.5 42.5h-86v66h824v-62h-103q-129 -31 -200.5 -106.5t-108.5 -168t-68 -171.5l-761 -2319h-136l-839 2757h-250v70h1114v-66h-328z" />
    <glyph glyph-name="W" unicode="W" horiz-adv-x="3756" 
d="M1782 1786l-271 909h-213v70h1119v-66h-373l594 -2023l516 1597q29 104 29 201v66q-6 74 -62 116.5t-131 42.5h-90v66h823v-62h-102q-131 -32 -202 -107t-108.5 -168.5t-66.5 -170.5l-762 -2318h-131l-528 1695l-557 -1700h-131l-840 2757h-254v70h1061v-66h-271
l590 -2023z" />
    <glyph glyph-name="X" unicode="X" horiz-adv-x="2896" 
d="M2458 78h315v-74h-1151v74h270l-577 1139l-377 -631q-129 -220 -160 -332q0 -7 -6 -28t-6 -29q0 -98 127 -103l123 -12v-78h-889v78q8 0 27 -2t26 -2q9 0 29 2t29 2q307 75 569 479l450 725l-725 1409h-294v78h1179v-90h-319l479 -909l328 528q106 164 106 258
q0 113 -106 119l-123 12v82h819v-74q-328 0 -561 -360l-414 -656z" />
    <glyph glyph-name="Y" unicode="Y" horiz-adv-x="2503" 
d="M1536 1200v-1134h307v-70h-1126v70h307v1015l-725 1602h-274v90h1155v-90h-324l619 -1385l458 1012q66 163 66 225q0 94 -67 127t-232 33v70h770v-70q-152 0 -247 -76t-179 -284z" />
    <glyph glyph-name="Z" unicode="Z" horiz-adv-x="2417" 
d="M2220 0h-2027v57l1409 2622h-525q-124 -6 -188.5 -22t-130.5 -60.5t-126.5 -132.5t-110 -192t-76.5 -180t-27 -97h-82v770h1876v-53l-1413 -2638h577q147 0 278.5 80.5t252.5 267.5t231 500h82v-922z" />
    <glyph glyph-name="bracketleft" unicode="[" horiz-adv-x="905" 
d="M938 -1032h-705v3883h705v-135h-553v-3609h553v-139z" />
    <glyph glyph-name="backslash" unicode="\" horiz-adv-x="1081" 
d="M1032 -1032l-1057 3883h152l1069 -3883h-164z" />
    <glyph glyph-name="bracketright" unicode="]" horiz-adv-x="864" 
d="M-37 2851h701v-3883h-701v139h541v3609h-541v135z" />
    <glyph glyph-name="asciicircum" unicode="^" horiz-adv-x="1253" 
d="M1196 1999h-94l-484 475l-462 -475h-99l418 794h307z" />
    <glyph glyph-name="underscore" unicode="_" horiz-adv-x="2204" 
d="M2085 -258v-303h-1970v303h1970z" />
    <glyph glyph-name="grave" unicode="`" horiz-adv-x="778" 
d="M213 2396q-93 95 -130.5 148.5t-37.5 109.5q0 57 51.5 98t120.5 41q102 0 165.5 -65t149.5 -254l209 -475h-77z" />
    <glyph glyph-name="a" unicode="a" horiz-adv-x="1815" 
d="M737 819q-119 -98 -172 -307q-12 -111 -12 -139q0 -249 152 -291q32 -8 57 -8q79 0 153 62.5t123.5 169.5t59.5 235v463q-52 -46 -175.5 -91.5t-185.5 -93.5zM1712 37v-62q-4 0 -45 -4t-65 -4q-122 0 -177 13q-292 64 -323 315q-39 -101 -134 -196t-231 -132
q-79 -12 -164 -12q-207 0 -339 106.5t-132 294.5q0 13 6.5 42t6.5 44q29 192 139.5 292.5t296.5 153t329 90t222 99.5v238q-5 397 -287 418q-66 0 -178.5 -33.5t-112.5 -102.5q0 -9 43.5 -33.5t74 -65t30.5 -122.5q0 -104 -61.5 -168.5t-143.5 -64.5q-87 0 -146 56t-59 153
q0 4 2 16t2 16q77 389 590 426h86q116 0 230 -30t184 -76q89 -93 125.5 -206t42.5 -302v-844q0 -9 -2 -36t-2 -37q0 -246 151 -246q3 0 19 2t22 2z" />
    <glyph glyph-name="b" unicode="b" horiz-adv-x="2073" 
d="M778 287v-291h-598v65h193v2700h700v-62h-278v-1282q100 235 323 299q41 4 119 4q223 0 391.5 -125t258 -333.5t91.5 -442.5q-17 -243 -112 -441t-254.5 -314.5t-354.5 -116.5h-20q-192 9 -287.5 86t-171.5 254zM786 1044v-401q0 -325 110.5 -474t242.5 -149l12 5
q122 5 204.5 92t126.5 268t50 459v33q0 229 -40 405.5t-121 274.5t-195 98h-37q-141 -16 -240.5 -167.5t-112.5 -443.5z" />
    <glyph glyph-name="c" unicode="c" horiz-adv-x="1815" 
d="M995 -37q-235 1 -437.5 121t-320.5 326.5t-118 453.5q0 251 117.5 462.5t318.5 335t436 124.5q170 -6 314 -67t228.5 -161.5t84.5 -218.5q0 -120 -63.5 -199t-161.5 -79q-108 0 -173 76t-65 194q0 110 82 221q4 4 4 29v45q0 46 -78 72t-172 26q-148 -23 -221 -122.5
t-131 -327.5q-37 -203 -37 -414q0 -177 33 -377q21 -204 150.5 -323t279.5 -119q4 0 11 2t9 2l9 -4q167 0 327 142.5t221 389.5h70q-161 -610 -692 -610h-25z" />
    <glyph glyph-name="d" unicode="d" horiz-adv-x="2073" 
d="M1286 287q-65 -161 -181.5 -250.5t-264.5 -89.5h-41q-208 0 -372 112t-254.5 308t-90.5 436l4 16q5 239 93 445.5t254 331t390 124.5q82 0 123 -4q227 -65 328 -299v1282h-279v62h701v-2700h188v-65h-598v291zM1278 1044q-11 291 -111 443t-241 168h-41
q-172 0 -262.5 -212t-90.5 -566q0 -2 2.5 -12.5t2.5 -20.5q4 -280 48 -459.5t127.5 -267t205.5 -92.5l4 -5q133 0 244.5 149t111.5 474v401z" />
    <glyph glyph-name="e" unicode="e" horiz-adv-x="1901" 
d="M578 1024h696q0 8 -4 29t-4 28v193q-53 268 -116.5 363.5t-223.5 95.5q-140 -26 -217 -135t-103 -256t-28 -318zM578 946v-69q0 -5 -2.5 -14t-2.5 -11q0 -211 20.5 -369.5t102 -285t246.5 -152.5q83 -20 111 -20q117 0 240.5 69.5t210.5 195.5t98 283h90
q-21 -174 -122.5 -314t-247 -220t-290.5 -80q-65 0 -94 4q-224 0 -413 119.5t-299.5 328t-110.5 453.5q0 250 110 465.5t297 340t404 124.5q207 0 385 -113.5t287 -309t122 -425.5h-1142z" />
    <glyph glyph-name="f" unicode="f" horiz-adv-x="1298" 
d="M1053 2679q11 4 29 13t24 24q0 57 -102 57q-105 0 -173.5 -111.5t-68.5 -265.5l24 -659h254v-66h-245v-1610h200v-61h-815v61h193v1610h-238v66h238q0 432 102 696q59 154 190 273t326 124h41q100 0 189 -48t142 -124t54 -155v-49q0 -221 -221 -250q-111 0 -176.5 66.5
t-65.5 150.5q0 104 17.5 150.5t81.5 107.5z" />
    <glyph glyph-name="g" unicode="g" 
d="M967 1745q-254 -13 -254 -528q0 -267 53 -395t188 -142q2 0 7 -2t6 -2q126 0 198 149t72 396q0 183 -57 353.5t-205 170.5h-8zM799 -135q-43 0 -131 4t-131 4q-144 -168 -144 -340q0 -218 148.5 -348.5t396.5 -130.5q178 0 336.5 78t253 209t94.5 282q-22 128 -110 189
t-291 61q-18 0 -60 -4t-63 -4h-299zM598 717q-153 102 -218 216t-65 271q0 256 190 425t478 169q204 0 442 -160q125 185 279 185q109 0 183.5 -62.5t74.5 -167.5q0 -75 -53.5 -125.5t-122.5 -50.5q-75 0 -119.5 50t-44.5 135q0 76 82 155h-21q-55 0 -110 -47.5t-94 -116.5
q139 -173 139 -397q0 -156 -91 -284t-246 -202.5t-339 -74.5q-109 0 -246 37q-111 0 -213 -47t-102 -158q0 -59 77.5 -105.5t200.5 -46.5h422q300 0 468 -105.5t196 -373.5q0 -252 -106.5 -451.5t-298.5 -310t-435 -110.5q-205 0 -371 72t-260 198t-94 279q0 106 88.5 214.5
t210.5 153.5q-225 100 -225 393q0 193 82.5 298.5t261.5 144.5z" />
    <glyph glyph-name="h" unicode="h" horiz-adv-x="2204" 
d="M795 1360q62 189 229.5 283t400.5 94q199 -25 312.5 -158t113.5 -379v-1143h189v-61h-815v61h196v1282q-3 142 -59.5 210.5t-140.5 68.5h-29q-174 0 -284 -185.5t-113 -412.5v-959h200v-61h-815v61h193v2630h-193v66h615v-1397z" />
    <glyph glyph-name="i" unicode="i" horiz-adv-x="1122" 
d="M795 61h200v-61h-815v61h193v1610h-193v66h615v-1676zM852 2392q0 -125 -89 -218t-206 -93q-113 0 -198 92.5t-85 218.5t84.5 216.5t198.5 90.5q78 0 146 -42t108.5 -112.5t40.5 -152.5z" />
    <glyph glyph-name="j" unicode="j" horiz-adv-x="1171" 
d="M446 61v1610h-200v62h815v-62h-189v-1610q0 -410 -110 -696q-60 -156 -190 -274t-326 -123h-53q-106 0 -196 44.5t-144 121t-54 166.5q0 130 65.5 204t176.5 90q110 0 174 -70.5t68 -150.5q-3 -98 -21.5 -145t-77.5 -109q-11 -4 -30 -13.5t-27 -23.5q0 -57 106 -57
t174 110.5t68 266.5zM938 2396q0 -123 -89 -217t-206 -94q-110 0 -196.5 94t-86.5 217q0 125 86 216t197 91q78 0 146 -42t108.5 -112.5t40.5 -152.5z" />
    <glyph glyph-name="k" unicode="k" horiz-adv-x="2073" 
d="M795 672v-611h200v-61h-815v61h193v2630h-193v66h615v-1999l663 901h-319v74h737v-74h-340l-373 -504l668 -1094h213v-61h-868v61h147l-426 742z" />
    <glyph glyph-name="l" unicode="l" horiz-adv-x="1122" 
d="M795 61h200v-61h-815v61h193v2630h-193v66h615v-2696z" />
    <glyph glyph-name="m" unicode="m" horiz-adv-x="3195" 
d="M1794 1393q60 188 229 288.5t398 100.5q397 -74 397 -541v-1180h193v-61h-816v61h197v1336q-17 260 -192 274q-178 0 -288 -168.5t-110 -425.5q0 -2 4 -8t4 -8v-1000h189v-61h-815v61h196v1336q-6 134 -58 200.5t-130 73.5q-176 0 -285 -183t-112 -415v-1012h200v-61
h-815v61h193v1610h-193v66h615v-324q59 186 223 277.5t395 91.5q311 -66 381 -389z" />
    <glyph glyph-name="n" unicode="n" horiz-adv-x="2204" 
d="M1425 1786q132 -16 226.5 -77.5t147 -176t52.5 -279.5v-1196h189v-61h-815v61h196v1336q-3 142 -59.5 210t-140.5 68h-29q-171 0 -284 -182t-113 -416v-1012h200v-61h-815v61h193v1610h-193v66h615v-324q62 188 229 280.5t401 92.5z" />
    <glyph glyph-name="o" unicode="o" horiz-adv-x="1991" 
d="M999 1794q234 0 440.5 -123.5t329.5 -334t123 -451.5q0 -250 -121.5 -461.5t-329.5 -334t-446 -122.5q-241 0 -442.5 119t-317.5 324.5t-116 453.5q0 252 119.5 466.5t323 339t437.5 124.5zM1401 877q-14 267 -37 427t-107 292.5t-253 140.5q-184 -10 -272 -146
t-108 -307t-22 -407q2 -257 19 -416.5t104.5 -294.5t278.5 -146q170 5 255 137.5t106 287.5t36 432z" />
    <glyph glyph-name="p" unicode="p" horiz-adv-x="2118" 
d="M377 -967v2638h-193v66h598v-324l99 152q144 198 381 209h53q150 0 272 -68.5t210 -189t136 -277.5t49 -326q-2 -238 -91.5 -458t-258 -354t-395.5 -134q-78 0 -115 8q-179 42 -250 160q-40 30 -73 160v-1262h278v-65h-897v65h197zM795 643q0 -227 90 -418.5t250 -191.5
l8 4q6 0 16 -2t17 -2q100 0 182 102.5t130 299.5t48 466q0 353 -84 574t-260 221h-37q-94 -14 -154.5 -69t-123.5 -169q0 -2 -26 -96t-39 -156t-17 -121v-442z" />
    <glyph glyph-name="q" unicode="q" 
d="M1675 1810h58v-2785h192v-61h-893v61h275v1241q-71 -153 -173.5 -210.5t-252.5 -88.5l-9 8q-245 0 -415.5 119.5t-254 313.5t-83.5 415q0 15 2 43t2 39q16 230 130 425t295.5 309t385.5 114h57q141 -6 266 -63.5t185 -137.5zM1315 639v463q0 314 -84.5 447.5
t-231.5 150.5h-32q-376 0 -389 -819q0 -45 -2.5 -100t-2.5 -85q0 -295 68.5 -470.5t251.5 -180.5q1 0 8 -2t12 -2q162 0 277.5 163t124.5 435z" />
    <glyph glyph-name="r" unicode="r" horiz-adv-x="1683" 
d="M795 1073v-1012h200v-61h-815v61h193v1610h-193v66h615v-324q53 169 174 265t288 96q17 0 47 -4.5t48 -4.5q104 -26 177 -100t73 -182q0 -125 -73 -198t-194 -73q-103 0 -170 64.5t-67 169.5l4 16q0 36 12 63.5t34.5 57.5t27.5 39v20q0 50 -58 50q-7 0 -19 -4.5t-22 -4.5
q-264 -113 -282 -610z" />
    <glyph glyph-name="s" unicode="s" horiz-adv-x="1683" 
d="M1356 1237h-58q-71 231 -206 359t-318 128h-53q-234 0 -275 -213q0 -224 230 -311l209 -86q331 -98 460.5 -266t129.5 -352q0 -26 -4.5 -57t-4.5 -42q-22 -156 -117 -259t-217.5 -149t-234.5 -46q-9 0 -32 2t-34 2q-110 5 -197 49t-154.5 102t-114.5 99q-35 0 -52.5 -28
t-36.5 -93.5t-34 -100.5l-58 5v638h58q212 -576 610 -614q3 0 20 -2t25 -2q135 0 240 70t116 209q-10 122 -72.5 200.5t-242.5 155.5l-352 127q-373 173 -373 500q0 2 2 10t2 10q16 261 155 386.5t373 125.5h50q163 0 405 -188q74 81 103 172h53v-541z" />
    <glyph glyph-name="t" unicode="t" horiz-adv-x="1298" 
d="M315 700v971h-200v66q200 49 331 194t230 412h61v-606h344v-66h-344v-1204q0 -11 -2 -33t-2 -33q0 -132 64 -227.5t137 -95.5h4q3 0 19 -2t22 -2q107 0 213 106l29 -45q-118 -108 -222 -144t-258 -36q-233 19 -333.5 170.5t-100.5 460.5q0 16 4 56t4 58z" />
    <glyph glyph-name="u" unicode="u" horiz-adv-x="2159" 
d="M737 -57q-192 12 -307 154.5t-115 398.5v1179h-192v62h815v-62h-197v-1335q3 -141 59 -212t138 -71l16 4q2 0 5 -1.5t4 -2.5q112 0 206 96t148.5 246t54.5 306v966h-201v62h811v-62h-188v-1610h188v-65h-602v385q-68 -217 -223.5 -327.5t-353.5 -110.5h-66z" />
    <glyph glyph-name="v" unicode="v" horiz-adv-x="1724" 
d="M1724 1663h-12q-102 0 -163 -54.5t-111 -191.5l-545 -1462h-86l-606 1708h-189v70h881v-70h-209l381 -1090l258 725q53 121 53 193q0 172 -172 172h-69v70h589v-70z" />
    <glyph glyph-name="w" unicode="w" horiz-adv-x="2679" 
d="M1335 1163l-450 -1208h-82l-606 1704h-193v65h881v-65h-201l377 -1086l242 689l-140 397h-131v65h889v-65h-270l381 -1094l254 729q53 125 53 189q0 176 -168 176h-74v65h594v-65h-16q-101 0 -161.5 -54.5t-113.5 -191.5l-545 -1466h-81z" />
    <glyph glyph-name="x" unicode="x" horiz-adv-x="1991" 
d="M303 66l500 688l-508 909h-180v70h901v-70h-209l287 -541l368 537h-205v74h517v-74h-197l-438 -602l565 -1000h217v-61h-975v61h254l-344 619l-418 -615h209v-65h-569v70h225z" />
    <glyph glyph-name="y" unicode="y" horiz-adv-x="1815" 
d="M1634 1671l-495 -1278q-33 -93 -89 -250t-117.5 -318.5t-136.5 -327.5t-153 -292q-119 -153 -206 -197t-212 -44q-151 38 -229.5 101t-81.5 198q6 119 65.5 187t163.5 71q185 -6 201 -234q-4 -62 -27.5 -92t-61.5 -58.5t-38 -49.5l4 -13q0 -14 10.5 -22.5t25.5 -14
t30 -12.5h32q277 0 607 987l-701 1659h-188v66h930v-66h-250l438 -1053l389 1053h-229v66h520v-66h-201z" />
    <glyph glyph-name="z" unicode="z" horiz-adv-x="1860" 
d="M1634 4h-1470v21l1032 1650h-291q-143 0 -250.5 -90.5t-183 -226t-164.5 -342.5h-49v725h1434v-25l-1008 -1650h254l4 -5q141 0 256.5 93t205.5 252.5t177 392.5h53v-795z" />
    <glyph glyph-name="braceleft" unicode="{" horiz-adv-x="823" 
d="M422 442v-958q0 -426 364 -426v-115q-209 0 -317 67t-145 201.5t-37 366.5v885q0 182 -48.5 265.5t-181.5 135.5v74q128 47 179 134.5t51 266.5v983q0 207 48 326t156 171t295 52v-110q-200 -15 -282 -106.5t-82 -299.5v-1012q0 -195 -44.5 -289.5t-164.5 -152.5
q112 -47 160.5 -154t48.5 -305z" />
    <glyph glyph-name="bar" unicode="|" horiz-adv-x="778" 
d="M602 2761v-3445h-483v3445h483z" />
    <glyph glyph-name="braceright" unicode="}" horiz-adv-x="954" 
d="M377 1343v1012q0 211 -79.5 301t-281.5 105v110q190 0 297.5 -40.5t159 -160t51.5 -348.5v-983q0 -179 51.5 -267t182.5 -134v-74q-135 -51 -184.5 -136t-49.5 -265v-885q0 -238 -35 -369.5t-144.5 -198.5t-328.5 -67v115q195 0 278 108t83 318v958q0 366 217 459
q-121 59 -169 154.5t-48 287.5z" />
    <glyph glyph-name="asciitilde" unicode="~" horiz-adv-x="1425" 
d="M1360 2662q-56 -259 -147.5 -379t-237.5 -120q-79 0 -154.5 28t-195 87.5t-186 86.5t-132.5 27q-110 0 -160 -221h-61q88 491 401 491q71 0 147.5 -25.5t179 -72t169 -68.5t139.5 -22q56 0 101 49t63 139h74z" />
    <glyph glyph-name="nonbreakingspace" unicode="&#xa0;" horiz-adv-x="1552" 
 />
    <glyph glyph-name="currency" unicode="&#xa4;" horiz-adv-x="2245" 
d="M356 1503q0 -222 103.5 -406.5t278 -292.5t376.5 -108q207 0 382.5 107.5t277.5 292.5t102 407q0 221 -101.5 408t-277.5 295t-383 108q-202 0 -377 -108t-278 -295.5t-103 -407.5zM66 487l360 390q-225 308 -225 626q0 313 221 619l-369 393l94 102l373 -393
q281 250 594 250q323 0 602 -250l361 393l102 -102l-360 -393q217 -299 217 -619q0 -323 -221 -618l364 -402l-98 -102l-365 397q-277 -237 -602 -237q-320 0 -582 233l-360 -393z" />
    <glyph glyph-name="brokenbar" unicode="&#xa6;" horiz-adv-x="692" 
d="M582 635v-1315h-467v1315h467zM115 2765h467v-1434h-467v1434z" />
    <glyph glyph-name="section" unicode="&#xa7;" 
d="M307 1114q0 -151 121 -263.5t349 -216.5t406.5 -181t262.5 -146q118 88 184 206.5t66 240.5q0 97 -42.5 160t-154 125t-360.5 165q-54 23 -146 59.5t-172.5 74t-147.5 77.5t-136 96q-230 -176 -230 -397zM483 1561q-151 212 -151 491q0 232 101 425.5t274 306t374 112.5
q167 0 299 -56.5t207.5 -163.5t75.5 -251v-29q0 -144 -84 -238t-186 -94q-119 0 -207 75t-88 183q0 119 70 199t175 80q59 0 91.5 -26.5t70 -73.5t56.5 -47q20 0 20 45q0 79 -58 153.5t-159.5 120t-220.5 45.5h-62q-230 0 -377 -133t-147 -342q0 -292 356 -459l369 -151
q65 -38 152 -74q192 -73 304.5 -256t112.5 -412q0 -423 -327 -725q143 -111 200.5 -218t57.5 -269q0 -251 -103 -448.5t-287.5 -306.5t-416.5 -109q-180 0 -323.5 63.5t-225.5 178.5t-82 261q0 90 40.5 165t107.5 119t143 44q103 0 182.5 -74.5t79.5 -187.5q0 -106 -71 -186
t-162 -80q-34 0 -97 38.5t-80 38.5q-20 0 -20 -20q0 -108 153.5 -193.5t342.5 -85.5q269 0 429 122.5t160 324.5q0 185 -109 284.5t-304 186.5q-133 49 -320.5 119.5t-334.5 166.5t-242 249t-95 370q0 149 34 272t107.5 237t194.5 233z" />
    <glyph glyph-name="copyright" unicode="&#xa9;" horiz-adv-x="2896" 
d="M180 1401q0 -373 173.5 -692.5t468.5 -506t632 -186.5q344 0 640.5 186.5t469 506.5t172.5 692q0 377 -172.5 700t-468.5 510t-641 187q-338 0 -632.5 -187.5t-468 -509.5t-173.5 -700zM94 1413q0 304 104 574t291.5 476t436 321.5t528.5 115.5q372 0 688.5 -199.5
t502 -542t185.5 -745.5q0 -405 -185 -743t-501.5 -532.5t-689.5 -194.5q-370 0 -683 194t-495 532.5t-182 743.5zM1462 2286q-162 -9 -233 -112t-90 -302q-25 -252 -25 -455q0 -280 45 -499q20 -147 100 -241t195 -104q147 7 283 111q203 178 258 492h41v-644h-66
q-3 7 -26 61.5t-40 76.5t-40 22q-3 0 -74 -48.5t-155 -84t-177 -35.5q-2 0 -12 4t-12 4q-149 0 -276.5 74.5t-221 204t-144.5 293.5t-51 334q9 257 99.5 460.5t245.5 318t348 114.5h65q194 0 352 -127q9 -9 21 -9q18 0 38 22.5t38.5 52t33.5 52.5h41v-626h-32
q-38 169 -79 283t-126 192q-55 52 -145 83.5t-179 31.5z" />
    <glyph glyph-name="guillemotleft" unicode="&#xab;" horiz-adv-x="1380" 
d="M692 233l-532 693l520 708l98 -98l-426 -610l455 -594zM1421 324l-114 -99l-562 701l521 708l110 -102l-438 -606z" />
    <glyph glyph-name="logicalnot" unicode="&#xac;" horiz-adv-x="1942" 
d="M1352 766h-1291v459h1774v-1225h-483v766z" />
    <glyph glyph-name="sfthyphen" unicode="&#xad;" horiz-adv-x="1253" 
d="M1040 721h-925l139 352h917z" />
    <glyph glyph-name="registered" unicode="&#xae;" horiz-adv-x="2978" 
d="M193 1401q0 -374 173.5 -692.5t467.5 -505.5t628 -187q348 0 647 186.5t473.5 505.5t174.5 693q0 379 -174.5 701t-473 509t-647.5 187q-335 0 -628.5 -187.5t-467 -509t-173.5 -700.5zM1462 2900q378 0 697 -199t505.5 -541.5t186.5 -746.5q0 -406 -186 -743.5
t-505 -532t-698 -194.5q-364 0 -678.5 194.5t-500 533.5t-185.5 742q0 401 185.5 744.5t500 543t678.5 199.5zM1483 2314q291 0 436 -87t166 -269v-45q0 -244 -291 -336l-168 -45q299 -22 397 -193q69 -98 78 -372q6 -259 144 -291q8 0 17 -2t15 -2q1 0 14 2t19 2l25 -41
q-47 -17 -119 -17q-74 0 -156 17q-127 19 -212 142t-91 308q-13 189 -28.5 258.5t-78 105.5t-212.5 46h-135v-811h192v-41h-688v41h192v1577h-192l8 53h668zM1303 1544h188q119 0 180 40t83 124.5t24 228.5q0 133 -35.5 202t-117 95.5t-228.5 26.5h-94v-717z" />
    <glyph glyph-name="degree" unicode="&#xb0;" horiz-adv-x="1666" 
d="M256 2297q0 230 163 392t391 162q232 0 394 -162t162 -392t-163 -393t-393 -163q-228 0 -391 162t-163 394zM474 2297q0 -140 99 -239t239 -99q138 0 237 99t99 239t-99 239t-237 99q-140 0 -239 -99t-99 -239z" />
    <glyph glyph-name="plusminus" unicode="&#xb1;" horiz-adv-x="2073" 
d="M1970 1364h-897v-991h-131v991h-885v147h885v992h131v-992h897v-147zM1958 0h-1905v135h1905v-135z" />
    <glyph glyph-name="mu" unicode="&#xb5;" horiz-adv-x="2159" 
d="M737 53v-1036h-475v2658h-217v62h692v-1295q0 -221 50 -301t180 -80q103 0 197.5 81.5t153 207.5t58.5 244v1085l-217 -4v62h684l-4 -1671h217v-62h-680v332q-71 -195 -172.5 -271.5t-257.5 -76.5h-33q-143 0 -176 65z" />
    <glyph glyph-name="paragraph" unicode="&#xb6;" horiz-adv-x="1815" 
d="M766 1298h-82q-307 0 -495.5 199.5t-188.5 525.5q0 265 108 430.5t283 238.5t387 73h901v-86h-180v-3072h-180v3072h-401v-3072h-152v1691z" />
    <glyph glyph-name="periodcentered" unicode="&#xb7;" horiz-adv-x="737" 
d="M659 934q0 -134 -92.5 -235t-214.5 -101q-129 0 -220 100t-91 236q0 135 91 229t220 94q122 0 214.5 -95t92.5 -228z" />
    <glyph glyph-name="periodcentered" unicode="&#x2219;" horiz-adv-x="737" 
d="M659 934q0 -134 -92.5 -235t-214.5 -101q-129 0 -220 100t-91 236q0 135 91 229t220 94q122 0 214.5 -95t92.5 -228z" />
    <glyph glyph-name="guillemotright" unicode="&#xbb;" horiz-adv-x="1425" 
d="M1135 926l-451 610l115 98l520 -708l-541 -693l-119 99zM57 324l484 602l-447 606l119 102l504 -708l-537 -701z" />
    <glyph glyph-name="Iacute" unicode="&#xcd;" horiz-adv-x="1597" 
d="M1057 66h307v-70h-1126v70h307v2609h-307v86h1126v-86h-307v-2609zM639 3031l336 471q53 74 101 125.5t93 83.5t87 46.5t84 14.5q80 0 124 -38.5t44 -107.5q0 -37 -12 -70.5t-38.5 -67.5t-68 -68.5t-99.5 -73.5l-561 -315h-90z" />
    <glyph glyph-name="iacute" unicode="&#xed;" horiz-adv-x="1122" 
d="M795 61h200v-61h-815v61h193v1610h-193v66h615v-1676zM528 1999l451 397q93 95 130.5 148.5t37.5 109.5q0 57 -51.5 98t-120.5 41q-102 0 -165.5 -65t-149.5 -254l-209 -475h77z" />
    <glyph glyph-name="circumflex" unicode="&#x2c6;" horiz-adv-x="1253" 
d="M1196 1999h-94l-484 475l-462 -475h-99l418 794h307z" />
    <glyph glyph-name="tilde" unicode="&#x2dc;" horiz-adv-x="1425" 
d="M1360 2662q-56 -259 -147.5 -379t-237.5 -120q-79 0 -154.5 28t-195 87.5t-186 86.5t-132.5 27q-110 0 -160 -221h-61q88 491 401 491q71 0 147.5 -25.5t179 -72t169 -68.5t139.5 -22q56 0 101 49t63 139h74z" />
    <glyph glyph-name="acutecomb" unicode="&#x301;" horiz-adv-x="128" 
d="M-819 1999l451 397q93 95 130.5 148.5t37.5 109.5q0 57 -51.5 98t-120.5 41q-102 0 -165.5 -65t-149.5 -254l-209 -475h77z" />
    <glyph glyph-name="afii10023" unicode="&#x401;" horiz-adv-x="2503" 
d="M2175 2757l-12 -766h-78q0 29 -47.5 155t-123.5 256t-161 191q-64 42 -131 57t-188 25h-377v-1176q45 0 126 -2t115 -2q166 0 257.5 31.5t138.5 134.5t47 317h78v-1097h-74q0 204 -34 309.5t-147 159.5t-347 55h-160v-1344h385q231 0 435.5 198t363.5 654h77l-24 -917
h-2061v70h312v2609h-312v82h1942zM1180 3252q0 -123 -72 -207t-166 -84q-107 0 -182.5 83.5t-75.5 207.5q0 120 75.5 203.5t182.5 83.5q94 0 166 -84.5t72 -202.5zM1683 3539q109 0 175.5 -80.5t66.5 -206.5q0 -129 -66.5 -210t-175.5 -81q-100 0 -172.5 84t-72.5 207
q0 120 72.5 203.5t172.5 83.5z" />
    <glyph glyph-name="afii10051" unicode="&#x402;" horiz-adv-x="2593" 
d="M1278 1405h258q356 -32 552.5 -117.5t276.5 -226.5t93 -361q-21 -174 -74.5 -296t-160.5 -207.5t-285.5 -134t-454.5 -62.5h-1028v74h319v2281h-110q-116 0 -225.5 -113t-189 -282t-114.5 -334h-61l4 811h688v246h-299v82h1085v-82h-274v-242h721l4 -807h-61
q-35 160 -114.5 330t-189 282.5t-225.5 112.5h-135v-954zM1278 74q216 7 355.5 59t215.5 186t76 373q-3 364 -120 489.5t-388 125.5h-139v-1233zM971 3031l336 471q53 74 101 125.5t93 83.5t87 46.5t84 14.5q80 0 124 -38.5t44 -107.5q0 -37 -12 -70.5t-38.5 -67.5
t-68 -68.5t-99.5 -73.5l-561 -315h-90z" />
    <glyph glyph-name="afii10052" unicode="&#x403;" horiz-adv-x="2245" 
d="M1057 2671v-2614h315v-69h-1139v73h312v2610h-312v82h1942l20 -836h-90q-105 237 -191 390.5t-206 258.5t-274 105h-377zM1094 3031l336 471q53 74 101 125.5t93 83.5t87 46.5t84 14.5q80 0 124 -38.5t44 -107.5q0 -37 -12 -70.5t-38.5 -67.5t-68 -68.5t-99.5 -73.5
l-561 -315h-90z" />
    <glyph glyph-name="afii10053" unicode="&#x404;" horiz-adv-x="2679" 
d="M1380 16q161 16 259 113t202.5 278.5t177.5 264t197 82.5q17 0 44.5 -5t49.5 -8q121 -56 207.5 -184.5t132.5 -257t62 -213.5l-74 -25q-29 199 -123 291q-19 25 -78 25h-37q-201 -170 -459.5 -304.5t-560.5 -138.5q-350 0 -637 210.5t-447.5 549.5t-160.5 703
q10 303 97.5 552t237 433t341 293.5t406.5 138.5q419 0 737 -258q27 0 49.5 39t50.5 109t39 89h61l37 -978l-90 -13q-59 266 -123 445t-192 305q-79 76 -215.5 118t-272.5 42h-77q-189 -64 -315 -255.5t-165 -379.5q-58 -274 -82 -672q16 16 61.5 44.5t65.5 53.5
q263 258 496 258q203 0 410 -221q85 -77 116.5 -100t67.5 -23q11 0 43 9t55 12q75 33 107 127l45 -49q-41 -122 -183.5 -258t-324.5 -136q-120 0 -262 90q-64 44 -138.5 121.5t-117 109.5t-105.5 32q-112 0 -331 -140q0 -186 30.5 -368.5t91.5 -442.5q51 -175 190 -347.5
t327 -172.5q5 0 77 12z" />
    <glyph glyph-name="afii10054" unicode="&#x405;" horiz-adv-x="2286" 
d="M1077 2732q-218 0 -344.5 -89.5t-126.5 -270.5q0 -213 93 -349.5t345 -261.5l394 -180q317 -165 467.5 -357.5t150.5 -457.5v-33q-64 -790 -831 -790h-13q-269 0 -435 95.5t-314 240.5q-16 -65 -68 -171t-59 -128q0 -3 -2 -12t-2 -13h-74v1028h66q53 -251 174 -474.5
t303.5 -364t402.5 -140.5q239 0 388 151t149 398q-19 178 -141 288.5t-302 186t-399 172t-334 213.5q-291 284 -291 586q0 233 99 419.5t273 291t394 104.5q418 0 680 -295q63 70 119 283h66v-885h-70q-40 225 -141.5 411.5t-259 295t-357.5 108.5z" />
    <glyph glyph-name="afii10055" unicode="&#x406;" horiz-adv-x="1597" 
d="M1057 66h307v-70h-1126v70h307v2609h-307v86h1126v-86h-307v-2609z" />
    <glyph glyph-name="afii10056" unicode="&#x407;" horiz-adv-x="1516" 
d="M672 3260q0 -120 -76.5 -203t-181.5 -83q-114 0 -190.5 82t-76.5 204q0 115 77 195t190 80q105 0 181.5 -80.5t76.5 -194.5zM1200 3539q116 0 191 -80t75 -199q0 -121 -75 -203.5t-191 -82.5q-101 0 -173.5 84t-72.5 202q0 116 72.5 197.5t173.5 81.5zM1020 66h311v-70
h-1130v70h311v2609h-311v86h1130v-86h-311v-2609z" />
    <glyph glyph-name="afii10062" unicode="&#x40e;" horiz-adv-x="2376" 
d="M1835 2310q41 100 41 213q0 168 -201 168h-53v74h713v-74h-135q-88 -24 -136 -81.5t-139 -291.5l-721 -1843q-97 -264 -202.5 -390.5t-280.5 -150.5h-37q-202 0 -346.5 122.5t-144.5 299.5q0 116 84.5 199.5t181.5 83.5t177.5 -76.5t80.5 -177.5q0 -98 -47.5 -151
t-115 -86t-67.5 -46q0 -102 226 -102q260 22 389 455l-860 2228h-242v82h1122v-82h-319l581 -1512zM799 3256q101 -108 207 -144t247 -36q283 0 430 180q-4 0 -16 -2t-16 -2q-88 0 -168 86q-78 71 -78 176q0 107 74 181q83 77 192 77q108 0 184 -69q87 -74 87 -201
q0 -144 -132 -270q-195 -209 -557 -217q-5 0 -18 -2t-14 -2q-320 0 -541 221q-148 135 -148 282q0 109 86 189q77 69 181 69q113 0 196 -77q70 -70 70 -185q0 -108 -70 -172q-62 -86 -164 -86q-7 0 -18 2t-14 2z" />
    <glyph glyph-name="afii10017" unicode="&#x410;" horiz-adv-x="2417" 
d="M1331 991l-319 1094l-357 -1094h676zM1298 2822l840 -2756h254v-70h-1114v65h324l-238 844h-737l-131 -418q-37 -110 -37 -204q0 -11 2 -32t2 -30q9 -74 64.5 -117t131.5 -43h86v-65h-823v61q9 0 29 -2t29 -2q8 0 23 2t22 2q130 31 202 107.5t107.5 166.5t66.5 173
l762 2318h135z" />
    <glyph glyph-name="afii10018" unicode="&#x411;" horiz-adv-x="2503" 
d="M1057 2675v-1098h229q332 0 548 -67.5t330 -180.5t162 -247.5t66 -303.5q-35 -269 -147.5 -435.5t-317 -249t-526.5 -97.5h-1168v70h312v2609h-312v82h1909l53 -775h-94q-120 203 -218 341.5t-238 245t-306 106.5h-282zM1057 66q205 0 330.5 13.5t221 67.5t148.5 172
t53 324v197q0 237 -67.5 373t-204.5 192.5t-354 56.5h-127v-1396z" />
    <glyph glyph-name="afii10019" unicode="&#x412;" horiz-adv-x="2462" 
d="M233 2765h1070q246 0 434 -40.5t323.5 -176t155.5 -398.5q0 -423 -455 -614q-156 -68 -225 -78q38 -6 106 -8t99 -8q234 -51 352.5 -154.5t157 -223t67.5 -319.5q-32 -384 -260.5 -562.5t-779.5 -178.5h-1045v74h312v2605h-312v82zM1057 1491h217l4 -8q70 0 146 34
t112 56q68 69 101 126.5t46 144t13 237.5v45q0 248 -69.5 370t-173 154.5t-253.5 32.5h-143v-1192zM1057 78q10 0 30 -2t27 -2q249 0 369 35t183 174.5t67 449.5q0 276 -41 415.5t-149 196t-322 56.5h-164v-1323z" />
    <glyph glyph-name="afii10020" unicode="&#x413;" horiz-adv-x="2245" 
d="M1057 2671v-2614h315v-69h-1139v73h312v2610h-312v82h1942l20 -836h-90q-105 237 -191 390.5t-206 258.5t-274 105h-377z" />
    <glyph glyph-name="afii10021" unicode="&#x414;" horiz-adv-x="2552" 
d="M483 12q-11 -97 -103.5 -422t-92.5 -331l8 -4h-94l-197 851h336q148 445 270.5 780t248.5 649t231 555t266 601h-373v86h1311v-86h-312v-2597h373l-196 -848h-95v9q0 7 -54.5 207t-89.5 338.5t-44 211.5h-1393zM1434 2691q-49 -118 -212.5 -500t-273 -652.5t-234.5 -617
t-272 -815.5h1033v2585h-41z" />
    <glyph glyph-name="afii10022" unicode="&#x415;" horiz-adv-x="2503" 
d="M2175 2757l-12 -766h-78q0 29 -47.5 155t-123.5 256t-161 191q-64 42 -131 57t-188 25h-377v-1176q45 0 126 -2t115 -2q166 0 257.5 31.5t138.5 134.5t47 317h78v-1097h-74q0 204 -34 309.5t-147 159.5t-347 55h-160v-1344h385q231 0 435.5 198t363.5 654h77l-24 -917
h-2061v70h312v2609h-312v82h1942z" />
    <glyph glyph-name="afii10024" unicode="&#x416;" horiz-adv-x="3629" 
d="M1565 1602v1077h-308v86h1127v-86h-307v-1073q294 34 384 183t121.5 432.5t113.5 433t360 188.5q206 0 293.5 -99t87.5 -233q0 -125 -80 -208t-195 -83q-111 0 -188.5 83t-77.5 208q2 60 23.5 93t25.5 54q-7 10 -24.5 25.5t-41.5 15.5q-51 0 -98 -78
q-61 -57 -82.5 -221.5t-50.5 -368t-120.5 -329t-291.5 -141.5q52 -9 74 -9q12 0 38 2t44 2q4 0 17 -2t16 -2h172q149 0 264 -41.5t191 -171.5q74 -104 90 -238.5t36 -555.5q12 -216 64.5 -335t173.5 -144h107l41 -82q-62 -21 -193 -21q-138 0 -254 21q-141 28 -254.5 127.5
t-182 263.5t-75.5 370q-12 257 -24 369.5t-58.5 202t-150.5 138.5t-295 61v-1442h307v-74h-1127v74h308v1442q-247 -16 -355.5 -97t-135.5 -218.5t-42 -455.5q-7 -204 -75.5 -369t-182 -265t-254.5 -127q-116 -21 -258 -21q-127 0 -188 21l41 82h106q121 25 174.5 146
t63.5 333q20 421 37 556t90 238q143 222 467 222h192q24 0 45 -2.5t33 -2.5q17 0 82 9q-200 18 -291.5 142.5t-121.5 328.5t-52 366t-84 219q-47 78 -102 78q-24 0 -40 -15.5t-22 -25.5q4 -16 25.5 -51.5t23.5 -95.5q0 -126 -77 -208.5t-189 -82.5q-114 0 -194 83.5
t-80 207.5q0 132 87.5 232t293.5 100q277 -38 361 -190t117 -436t123.5 -433t381.5 -182z" />
    <glyph glyph-name="afii10025" unicode="&#x417;" horiz-adv-x="2552" 
d="M1593 1561q67 84 90.5 162t27.5 186t9 270v66q0 284 -78 393t-221 123h-8q-189 0 -316.5 -73.5t-205.5 -187.5t-130 -247.5t-97 -249.5l-99 12l49 819l86 9l13 -50q26 -98 42 -139t48 -41q54 13 172.5 81t216 108.5t225.5 48.5h86q343 0 567 -165.5t224 -469.5v-16
q0 -362 -381 -578q-31 -16 -106.5 -62t-102.5 -61q216 -66 356 -142t225.5 -214.5t94.5 -364.5v-33q0 -259 -134 -441t-371 -273.5t-540 -91.5q-3 0 -8.5 -2.5t-7.5 -2.5q-209 3 -405 75t-347.5 170.5t-267.5 197.5h-41q-54 0 -74 -25q-94 -94 -123 -291l-73 25
q38 172 134 373t271 282q15 2 42.5 7.5t43.5 5.5q125 0 201 -87.5t175 -265t198.5 -278t261.5 -119.5q213 0 329.5 173t116.5 577v61q0 197 -48.5 365.5t-147.5 240.5q-302 -225 -488 -225l-12 4q-146 0 -224.5 65.5t-78.5 172.5q0 3 2 16t2 21q11 103 101 162t198 59h61
q140 0 467 -135zM1065 1286q4 0 11 -2t9 -2q91 0 224 70.5t202 142.5q-33 26 -188.5 72.5t-208.5 46.5q-16 4 -61 4q-75 0 -129 -42t-60 -114q0 -5 -2 -16t-2 -12q0 -148 205 -148z" />
    <glyph glyph-name="afii10026" unicode="&#x418;" horiz-adv-x="2978" 
d="M1057 147v-73h307v-74h-1126v74h307v2605h-307v86h1126v-86h-307v-2400l37 159l880 2175v66h-311v86h1130v-86h-311v-2605h311v-74h-1130v74h311v2404l-20 -143z" />
    <glyph glyph-name="afii10027" unicode="&#x419;" horiz-adv-x="2810" 
d="M1057 147v-73h307v-74h-1126v74h307v2605h-307v86h1126v-86h-307v-2400l37 159l880 2175v66h-311v86h1130v-86h-311v-2605h311v-74h-1130v74h311v2404l-20 -143zM1085 3244q106 -104 211 -136t248 -32q287 0 447 168q-8 0 -21 -2t-16 -2q-88 0 -172 90q-78 71 -78 180
q0 99 74 180q78 74 192 74q106 0 184 -65q87 -87 87 -201q0 -141 -136 -279q-202 -200 -561 -208q-4 0 -15 -4.5t-13 -4.5q-325 0 -549 217q-148 150 -148 283q0 116 94 197q71 65 172 65q130 0 197 -74q74 -74 74 -192q0 -109 -70 -168q-65 -90 -168 -90q-6 0 -16 2t-17 2z
" />
    <glyph glyph-name="afii10028" unicode="&#x41a;" horiz-adv-x="2720" 
d="M1122 1593q342 15 451 165t140.5 444.5t109 446.5t360.5 190q208 0 294.5 -99.5t86.5 -236.5q0 -122 -79.5 -204.5t-190.5 -82.5q-114 0 -192.5 82.5t-78.5 204.5q6 61 28.5 101t25.5 50q-8 10 -26 25.5t-40 15.5q-56 0 -98 -78q-62 -59 -82 -206.5t-49 -344.5
t-122.5 -329.5t-299.5 -184.5q10 0 28 -6t25 -6q14 0 38 2t32 2h33q217 -16 357 -44t232 -124q102 -98 141 -289.5t56 -541.5q20 -432 238 -479q20 0 35.5 -4.5t25.5 -4.5q5 0 21.5 4.5t27.5 4.5l41 -82q-65 -21 -197 -21q-137 0 -253 21q-141 27 -254 126.5t-180.5 264
t-73.5 370.5q-14 259 -30 380t-67.5 211t-166 135t-318.5 45h-94v-1450h307v-70h-1126v70h307v2609h-307v86h1126v-86h-307v-1082h65z" />
    <glyph glyph-name="afii10029" unicode="&#x41b;" horiz-adv-x="2593" 
d="M1466 2679q-78 -271 -186 -643.5t-207.5 -702.5t-183.5 -585t-144 -404q-57 -160 -154 -259t-190 -110h-57q-96 0 -190 33.5t-157 106.5t-63 184q0 7 2.5 28t2.5 38q0 124 82.5 215.5t195.5 91.5q122 0 204.5 -90.5t82.5 -216.5q0 -130 -98 -230q-50 -28 -50 -53
q0 -23 45 -29q80 16 130 85.5t128 242.5q127 357 308 913l409 1385h-356v86h1311v-86h-312v-2605h316v-74h-1135v74h311v2605h-45z" />
    <glyph glyph-name="afii10030" unicode="&#x41c;" horiz-adv-x="3240" 
d="M627 647q0 -198 9.5 -256.5t47.5 -169.5q56 -160 221 -160h90v-65h-823v61q5 0 23 -2t26 -2q9 0 27 2t26 2q271 65 271 557v2061h-262v86h815l553 -1942l585 1942h762v-86h-262v-2609h262v-70h-999v70h254v2474l-758 -2544h-119l-749 2601v-1950z" />
    <glyph glyph-name="afii10031" unicode="&#x41d;" horiz-adv-x="2978" 
d="M1057 1413v-1347h307v-70h-1126v70h307v2609h-307v86h1126v-86h-307v-1180h917v1180h-311v86h1130v-86h-311v-2609h311v-70h-1130v70h311v1347h-917z" />
    <glyph glyph-name="afii10032" unicode="&#x41e;" horiz-adv-x="2810" 
d="M1397 12q171 6 303.5 89.5t195.5 238.5q119 370 119 1020q0 319 -33 717q-50 330 -176.5 498.5t-412.5 168.5q-192 -10 -308 -91t-175.5 -221.5t-90.5 -354.5q-37 -474 -37 -717q0 -271 26.5 -543t88.5 -477q107 -298 500 -328zM1397 -53q-259 0 -484 121.5t-388.5 329
t-252 467t-88.5 528.5q14 310 108.5 568.5t258 449.5t380.5 295t466 104q335 0 606.5 -181.5t433.5 -507t180 -728.5q0 -268 -91 -527.5t-255.5 -465.5t-389.5 -328t-484 -125z" />
    <glyph glyph-name="afii10033" unicode="&#x41f;" horiz-adv-x="3023" 
d="M1061 2679v-2605h311v-74h-1130v74h311v2605h-311v86h2556v-86h-308v-2605h308v-74h-1127v74h307v2605h-917z" />
    <glyph glyph-name="afii10034" unicode="&#x420;" horiz-adv-x="2376" 
d="M545 82v2613h-312v70h1201q439 0 684 -185t245 -495l9 -4q0 -205 -100.5 -371.5t-297.5 -266.5t-475 -112h-442v-1249h274v-82h-1098v82h312zM1057 1413h282q275 30 377.5 179.5t102.5 451.5v70q0 266 -79.5 390.5t-217.5 157.5t-383 33h-82v-1282z" />
    <glyph glyph-name="afii10035" unicode="&#x421;" horiz-adv-x="2503" 
d="M1352 2736q-259 -14 -368.5 -173.5t-147.5 -481.5q-37 -446 -37 -717q0 -469 65 -786q38 -230 164.5 -378.5t306.5 -166.5q234 5 447 180q328 269 401 770h74v-1024h-107q-64 152 -92 205t-76 53q-10 0 -121 -75.5t-241 -131t-277 -55.5h-40q-235 0 -437.5 120
t-351.5 328t-229 465.5t-80 528.5q13 402 159 725.5t391 505.5t543 182q19 0 54 2t49 2q300 0 561 -201q20 -20 33 -20q66 0 176 205h70v-996h-62q-59 266 -123 445t-192 305q-89 80 -228.5 132t-271.5 52h-12z" />
    <glyph glyph-name="afii10036" unicode="&#x422;" horiz-adv-x="2245" 
d="M872 2691h-69q-159 0 -280.5 -104.5t-206.5 -259t-189 -390.5h-86l45 836h2077l41 -836h-86q-114 257 -191 401.5t-197.5 248.5t-287.5 104h-62v-2613h316v-66h-1139v70h315v2609z" />
    <glyph glyph-name="afii10037" unicode="&#x423;" horiz-adv-x="2286" 
d="M1835 2310q41 100 41 213q0 168 -201 168h-53v74h713v-74h-135q-88 -24 -136 -81.5t-139 -291.5l-721 -1843q-97 -264 -202.5 -390.5t-280.5 -150.5h-37q-202 0 -346.5 122.5t-144.5 299.5q0 116 84.5 199.5t181.5 83.5t177.5 -76.5t80.5 -177.5q0 -98 -47.5 -151
t-115 -86t-67.5 -46q0 -102 226 -102q260 22 389 455l-860 2228h-242v82h1122v-82h-319l581 -1512z" />
    <glyph glyph-name="afii10038" unicode="&#x424;" horiz-adv-x="3023" 
d="M1266 401q-13 0 -46 -2t-44 -2q-293 0 -529 115t-378 345.5t-154 559.5q3 538 313.5 769t763.5 231h74v262h-308v86h1127v-86h-307v-262h73q284 0 526 -93t397 -315.5t159 -591.5q-15 -328 -159 -559t-380.5 -346t-529.5 -115q-13 0 -44 2t-42 2v-327h307v-74h-1127v74
h308v327zM1266 2335h-49q-192 0 -318 -78t-193 -274.5t-67 -540.5q0 -9 2 -23t2 -22q0 -9 -2 -31t-2 -31q0 -426 135.5 -647t458.5 -221q4 0 16 4t17 4v1860zM1778 2335v-1860q3 0 14 -4t18 -4q320 0 455 221t135 647v107q0 344 -67 540.5t-193 274.5t-317 78h-45z" />
    <glyph glyph-name="afii10039" unicode="&#x425;" horiz-adv-x="2851" 
d="M2458 78h315v-74h-1151v74h270l-577 1139l-377 -631q-129 -220 -160 -332q0 -7 -6 -28t-6 -29q0 -98 127 -103l123 -12v-78h-889v78q8 0 27 -2t26 -2q9 0 29 2t29 2q307 75 569 479l450 725l-725 1409h-294v78h1179v-90h-319l479 -909l328 528q106 164 106 258
q0 113 -106 119l-123 12v82h819v-74q-328 0 -561 -360l-414 -656z" />
    <glyph glyph-name="afii10040" unicode="&#x426;" horiz-adv-x="3023" 
d="M1053 86h917v2609h-311v70h1130v-70h-311v-2609h401l-167 -864h-82q-101 462 -250 774l-2147 4v86h308v2609h-308v70h1127v-70h-307v-2609z" />
    <glyph glyph-name="afii10041" unicode="&#x427;" horiz-adv-x="2851" 
d="M852 1864q0 -1 -4 -12t-4 -13q0 -197 105.5 -299t267.5 -102q3 0 18 2t22 2h508v1241h-307v90h1127v-90h-308v-2605h308v-74h-1127v74h307v1257h-499q-11 0 -35 -2t-35 -2q-391 0 -623.5 130t-232.5 464v758h-307v90h1126v-90h-307v-819z" />
    <glyph glyph-name="afii10042" unicode="&#x428;" horiz-adv-x="4059" 
d="M3871 0h-3638v86h308v2609h-308v70h1070v-70h-250v-2609h757v2609h-254v70h1016v-70h-254v-2609h742v2609h-250v70h1069v-70h-307v-2601h299v-94z" />
    <glyph glyph-name="afii10043" unicode="&#x429;" horiz-adv-x="4141" 
d="M3498 4h-3240v90h307v2605h-307v74h1073v-74h-254v-2605h758v2605h-254v74h1016v-74h-254v-2605h741v2605h-250v74h1069v-74h-307v-2601h402l-168 -864h-86q-52 251 -106 423.5t-140 346.5z" />
    <glyph glyph-name="afii10044" unicode="&#x42a;" horiz-adv-x="2909" 
d="M1000 2683h-332q-176 0 -323 -228.5t-209 -496.5h-62l8 807h1692v-82h-266v-1167h397q487 -3 710.5 -223t223.5 -539v-29q-6 -174 -120.5 -340.5t-342 -275.5t-549.5 -109h-1142v74h315v2609zM1508 1438v-1364h151q5 0 17 -4t16 -4q214 0 343 47.5t196 185t67 401.5v74
q0 247 -48.5 392.5t-147 208.5t-254.5 63h-340z" />
    <glyph glyph-name="afii10045" unicode="&#x42b;" horiz-adv-x="3670" 
d="M3138 74h311v-74h-1131v74h312v2605h-312v86h1131v-86h-311v-2605zM553 2683h-315v82h1097v-82h-274v-1167h397q487 -3 710.5 -223t223.5 -539v-29q-6 -174 -120.5 -340.5t-342 -275.5t-549.5 -109h-1142v74h315v2609zM1061 1438v-1364h151q5 0 17 -4t16 -4
q214 0 343 47.5t196 185t67 401.5v74q0 247 -48.5 392.5t-147 208.5t-254.5 63h-340z" />
    <glyph glyph-name="afii10046" unicode="&#x42c;" horiz-adv-x="2462" 
d="M553 2683h-315v82h1097v-82h-274v-1167h397q487 -3 710.5 -223t223.5 -539v-29q-6 -174 -120.5 -340.5t-342 -275.5t-549.5 -109h-1142v74h315v2609zM1061 1438v-1364h151q5 0 17 -4t16 -4q214 0 343 47.5t196 185t67 401.5v74q0 247 -48.5 392.5t-147 208.5t-254.5 63
h-340z" />
    <glyph glyph-name="afii10047" unicode="&#x42d;" horiz-adv-x="2679" 
d="M1282 16q75 -12 74 -12q130 0 240 88t181.5 208.5t98.5 223.5q123 520 123 811q-221 140 -336 140q-63 0 -103.5 -31t-115.5 -110.5t-137 -121.5q-142 -90 -267 -90q-180 0 -319 134.5t-184 259.5l45 49q31 -95 110 -127q19 -2 49 -11.5t41 -9.5q38 0 72.5 24t120.5 99
q198 221 401 221q237 0 500 -258q24 -25 69.5 -54t57.5 -44q-13 346 -82 672q-36 184 -162.5 377.5t-316.5 257.5h-82q-135 0 -268.5 -42t-214.5 -118q-127 -125 -189.5 -296.5t-126.5 -453.5l-86 13l37 978h61q10 -19 36.5 -88t50 -109t53.5 -40q310 258 733 258
q289 -40 531.5 -222t391.5 -489.5t162 -705.5q0 -270 -92.5 -533.5t-261.5 -473.5t-400 -333t-495 -123q-504 6 -1020 443h-41q-54 0 -74 -25q-95 -95 -122 -291l-70 25q30 159 128 366.5t273 288.5q15 2 42.5 7.5t43.5 5.5q125 0 201.5 -85.5t179 -264t201 -275.5
t258.5 -113z" />
    <glyph glyph-name="afii10048" unicode="&#x42e;" horiz-adv-x="4100" 
d="M1458 1503q32 378 195 677.5t427.5 466.5t581.5 167q251 0 470 -104t383 -295t260 -452t108 -566q0 -268 -90 -527t-255 -465.5t-391 -327.5t-485 -122q-258 0 -479.5 119.5t-386 327t-253.5 466.5t-89 529v24h-401v-1343h307v-74h-1127v74h308v2605h-308v90h1127v-90
h-307v-1180h405zM2654 33q174 6 310 84t198 227q119 373 119 1020q0 260 -29 717q-50 328 -177 491.5t-417 163.5q-192 -10 -307.5 -88t-175 -217.5t-90.5 -349.5q-33 -564 -33 -717q0 -639 111 -1020q106 -282 491 -311z" />
    <glyph glyph-name="afii10049" unicode="&#x42f;" horiz-adv-x="2810" 
d="M2585 2765l8 -82h-312v-2605h312v-74h-1131v74h312v1335h-213q-218 -11 -324 -70t-149 -193.5t-56 -404.5q-7 -204 -75.5 -369t-182 -265t-254.5 -127q-116 -21 -258 -21q-127 0 -188 21l41 82q22 -9 41 -9q9 0 29 4.5t36 4.5q121 25 174.5 146t63.5 333q13 267 52 414.5
t75 199.5q180 241 631 275l106 4l-344 82q-231 78 -365.5 232.5t-134.5 361.5q0 10 2 39t2 38q44 295 271.5 434.5t687.5 139.5h1143zM1774 1499v1184h-152q-244 0 -377.5 -43.5t-191.5 -157.5t-58 -332q-1 -24 -4 -57t-5.5 -68.5t-2.5 -50.5q0 -259 114.5 -367t377.5 -108
h299z" />
    <glyph glyph-name="afii10065" unicode="&#x430;" horiz-adv-x="1815" 
d="M1098 541v463q-26 -27 -139.5 -72.5t-196 -97t-146 -164.5t-63.5 -297q0 -123 48 -211t161 -88q79 0 153 62.5t123.5 169.5t59.5 235zM1712 37v-62q-4 0 -45 -4t-65 -4q-122 0 -177 13q-292 64 -323 315q-39 -101 -134 -196t-231 -132q-79 -12 -164 -12
q-207 0 -339 106.5t-132 294.5q0 221 109 339.5t219.5 155t354 100t317.5 126.5v238q0 213 -87.5 315.5t-199.5 102.5q-66 0 -178.5 -33.5t-112.5 -102.5q0 -9 43.5 -33.5t74 -65t30.5 -122.5q0 -104 -61.5 -168.5t-143.5 -64.5q-87 0 -146 56t-59 153q0 204 182 331
t498 127q313 0 447.5 -146t134.5 -468v-844q0 -9 -2 -36t-2 -37q0 -246 151 -246q3 0 19 2t22 2z" />
    <glyph glyph-name="afii10066" unicode="&#x431;" 
d="M1765 2843q0 -217 -124 -334t-277 -117q-11 0 -86 12l-4 -4q-54 0 -105 25t-135.5 80t-135 81.5t-95.5 26.5q-92 0 -148 -155q-26 -88 -49.5 -240t-23.5 -317q0 -19 2 -67t2 -73q0 -7 -2 -33t-2 -36q0 -71 10 -177t10 -110q48 62 108.5 140t150.5 137t216 63q25 8 86 8
q185 0 356 -125t276.5 -327.5t105.5 -415.5q0 -251 -117 -463t-320 -335.5t-444 -123.5q-182 0 -326 57.5t-253 179t-185.5 307t-128.5 451.5q-1 27 -4 75.5t-5.5 96.5t-2.5 74q0 334 83 628t233 515.5t347 355.5q132 95 357 95q187 0 307 -66q69 -61 143 -61q127 0 127 147
v25h53zM1401 823q-14 247 -37 396t-107.5 271t-252.5 128q-184 -7 -272 -133.5t-108 -284.5t-22 -377q2 -238 19 -385t104.5 -270.5t278.5 -134.5q171 4 255 125.5t105.5 265.5t36.5 399z" />
    <glyph glyph-name="afii10067" unicode="&#x432;" horiz-adv-x="1815" 
d="M864 61q8 0 23 -2t18 -2q312 0 312 377q0 2 2 13t2 12v16q0 218 -105.5 303.5t-341.5 85.5v-803h90zM913 1675h-139v-737q5 0 27 -2t30 -2q180 0 266.5 102.5t86.5 270.5v24q-3 192 -61.5 266.5t-209.5 77.5zM160 0v61h192v1610h-192v66h884q247 0 398 -103t151 -295v-4
q-22 -136 -90 -219.5t-217 -148.5q-17 -3 -90.5 -30t-122.5 -32q114 0 230 -8q191 -44 275.5 -151t84.5 -304q-26 -223 -203.5 -332.5t-464.5 -109.5h-835z" />
    <glyph glyph-name="afii10068" unicode="&#x433;" horiz-adv-x="1556" 
d="M795 61h200v-61h-815v61h193v1610h-193v66h1299l45 -664h-70l-53 107q-199 399 -504 491h-102v-1610z" />
    <glyph glyph-name="afii10069" unicode="&#x434;" horiz-adv-x="1724" 
d="M795 1671h-234v66h922v-66h-189v-1610h299l-180 -602h-74l-122 537h-861l-159 -537h-62l-135 619h242zM332 74h532v1597z" />
    <glyph glyph-name="afii10070" unicode="&#x435;" horiz-adv-x="1860" 
d="M578 1024h696q0 8 -4 29t-4 28v193q-53 268 -116.5 363.5t-223.5 95.5q-140 -26 -217 -135t-103 -256t-28 -318zM578 946v-69q0 -5 -2.5 -14t-2.5 -11q0 -211 20.5 -369.5t102 -285t246.5 -152.5q83 -20 111 -20q117 0 240.5 69.5t210.5 195.5t98 283h90
q-21 -174 -122.5 -314t-247 -220t-290.5 -80q-65 0 -94 4q-224 0 -413 119.5t-299.5 328t-110.5 453.5q0 250 110 465.5t297 340t404 124.5q207 0 385 -113.5t287 -309t122 -425.5h-1142z" />
    <glyph glyph-name="afii10072" unicode="&#x436;" horiz-adv-x="2503" 
d="M1032 897q-150 -12 -225.5 -121.5t-93.5 -353.5q0 -194 -144.5 -330.5t-396.5 -136.5q-78 0 -119 4v78q4 0 15 -2t14 -2q93 0 149 80.5t56 218.5q9 163 29 271t82.5 192.5t187.5 122.5q100 20 200 20h148q-110 29 -168 143q-26 61 -41.5 158t-28 173t-41.5 132
q-49 89 -123 107q41 -62 53.5 -93.5t12.5 -91.5v-24q0 -76 -65 -122.5t-148 -53.5q-92 9 -150.5 71.5t-58.5 165.5q0 4 2 15t2 14q35 192 221 225h5q168 0 237 -104.5t110.5 -306.5t88.5 -295t182 -93l8 5v692h-192v65h815v-65h-201v-692q134 0 183.5 96t90 294.5t109 301
t236.5 102.5h8q186 -33 221 -225v-29q0 -105 -56.5 -166.5t-148.5 -70.5q-84 7 -150.5 53.5t-66.5 122.5q0 2 2 12t2 12q0 61 13.5 91.5t56.5 93.5q-41 -9 -66 -29.5t-57 -77.5q-30 -56 -43.5 -132t-31 -177t-40.5 -154q-58 -113 -164 -143h140q104 0 204 -20
q125 -38 187.5 -122.5t82.5 -192.5t29 -271q0 -136 54.5 -217.5t146.5 -81.5q3 0 17 2t20 2v-78q-41 -4 -123 -4q-255 0 -395.5 136t-140.5 331q-21 246 -96 354.5t-224 120.5v-852h201v-61h-815v61h192v852z" />
    <glyph glyph-name="afii10073" unicode="&#x437;" horiz-adv-x="1683" 
d="M815 -74h-20q-172 0 -349 105.5t-266 206.5q-16 8 -45 8q-54 0 -74 -86l-28 -127l-53 24l36 148q37 128 104.5 224.5t137.5 102.5h29q98 0 146.5 -68t101 -203t110 -204t170.5 -69q303 0 303 471q0 286 -143 401q-182 -147 -332 -147q-89 0 -147 51.5t-58 107.5q0 5 4 20
t4 21q18 164 226 164q132 0 303 -78q75 111 94 175t29 182q0 187 -49.5 268t-167.5 96q-104 -7 -184 -65t-134 -141t-93.5 -171t-76.5 -172l-53 13l37 594l61 8q5 -65 115 -164q175 158 332 164h73q219 0 380.5 -95.5t164.5 -306.5q0 -227 -250 -364q-33 -16 -78.5 -35.5
t-68.5 -30.5q20 -8 59 -15t56 -17q306 -112 319 -435q-49 -531 -725 -561zM918 918q-56 36 -125 61t-109 25h-41q-62 0 -96.5 -33.5t-34.5 -77.5q0 -45 39.5 -82t107.5 -37h17q1 0 6 -4t10 -4q50 0 123 52t103 100z" />
    <glyph glyph-name="afii10074" unicode="&#x438;" horiz-adv-x="2159" 
d="M795 102v-41h200v-61h-815v61h193v1610h-193v66h815v-66h-200v-1446l20 99l537 1327v20h-197v66h815v-66h-192v-1610h192v-61h-815v61h197v1495l-21 -98z" />
    <glyph glyph-name="afii10075" unicode="&#x439;" horiz-adv-x="2159" 
d="M795 102v-41h200v-61h-815v61h193v1610h-193v66h815v-66h-200v-1446l20 99l537 1327v20h-197v66h815v-66h-192v-1610h192v-61h-815v61h197v1495l-21 -98zM1057 1982q-124 0 -268 56t-248 153q-135 122 -135 287q0 124 81 205q76 74 177 74q114 0 192 -78q66 -72 66 -197
q0 -116 -66 -188q-34 -37 -98 -57t-99 -25q67 -67 171 -117.5t210 -50.5l17 8q115 0 244 48.5t202 111.5q-33 5 -95.5 25t-104.5 57q-70 75 -70 188q0 122 70 197q78 78 192 78q116 0 184 -74q78 -71 78 -209q0 -176 -135 -299q-92 -83 -245.5 -134t-319.5 -59z" />
    <glyph glyph-name="afii10076" unicode="&#x43a;" horiz-adv-x="1942" 
d="M1323 918q182 -55 239 -191t72 -383q0 -134 54.5 -216.5t146.5 -82.5q3 0 17 4t20 4v-78q-41 -8 -127 -8q-249 0 -391 138.5t-142 332.5q-15 254 -105.5 364.5t-262.5 110.5h-49v-852h200v-61h-815v61h193v1610h-193v66h815v-66h-200v-692h65q6 0 19 2t18 2q162 9 207 93
t61 263.5t60 266.5q84 168 266 168h29q187 -24 237 -234q0 -246 -225 -274q-82 7 -147.5 59.5t-65.5 132.5q0 2 2 13t2 12q0 58 15 92.5t55 87.5q-76 -10 -127 -102q-27 -54 -36.5 -142.5t-18.5 -182t-35 -155.5q-58 -114 -177 -139q73 0 140.5 -4t103.5 -9t80 -11z" />
    <glyph glyph-name="afii10077" unicode="&#x43b;" horiz-adv-x="1942" 
d="M1061 1671q-129 -946 -443 -1458q-62 -113 -155.5 -175.5t-188.5 -62.5q-49 0 -69 5q-205 14 -205 294q32 189 213 189h53q91 -31 123.5 -82t32.5 -139q0 -56 -19.5 -84.5t-78.5 -91.5q6 0 15 -4.5t13 -4.5q109 0 261 305.5t265 701t113 607.5h-233v66h921v-66h-188
v-1610h233v-61h-888v61h225v1610z" />
    <glyph glyph-name="afii10078" unicode="&#x43c;" horiz-adv-x="2286" 
d="M1343 61h177v1536l-525 -1638h-73l-480 1614v-1512h213v-61h-508v61h226v1610h-226v66h713l299 -1073l332 1073h647v-74h-192v-1606h192v-57h-795v61z" />
    <glyph glyph-name="afii10079" unicode="&#x43d;" horiz-adv-x="2118" 
d="M795 864v-803h200v-61h-815v61h193v1610h-193v66h815v-66h-200v-733h557v733h-197v66h815v-66h-192v-1610h192v-61h-815v61h197v803h-557z" />
    <glyph glyph-name="afii10080" unicode="&#x43e;" horiz-adv-x="1991" 
d="M999 1794q234 0 440.5 -123.5t329.5 -334t123 -451.5q0 -250 -121.5 -461.5t-329.5 -334t-446 -122.5q-241 0 -442.5 119t-317.5 324.5t-116 453.5q0 252 119.5 466.5t323 339t437.5 124.5zM1401 877q-14 267 -37 427t-107 292.5t-253 140.5q-184 -10 -272 -146
t-108 -307t-22 -407q2 -257 19 -416.5t104.5 -294.5t278.5 -146q170 5 255 137.5t106 287.5t36 432z" />
    <glyph glyph-name="afii10081" unicode="&#x43f;" horiz-adv-x="2159" 
d="M795 1663v-1606h200v-61h-815v61h193v1606h-193v70h1790v-70h-192v-1606h192v-61h-815v61h197v1606h-557z" />
    <glyph glyph-name="afii10082" unicode="&#x440;" horiz-adv-x="2118" 
d="M377 -967v2638h-193v66h598v-324l99 152q144 198 381 209h53q150 0 272 -68.5t210 -189t136 -277.5t49 -326q-2 -238 -91.5 -458t-258 -354t-395.5 -134q-78 0 -115 8q-179 42 -250 160q-40 30 -73 160v-1262h278v-65h-897v65h197zM795 643q0 -227 90 -418.5t250 -191.5
l8 4q6 0 16 -2t17 -2q100 0 182 102.5t130 299.5t48 466q0 353 -84 574t-260 221h-37q-94 -14 -154.5 -69t-123.5 -169q0 -2 -26 -96t-39 -156t-17 -121v-442z" />
    <glyph glyph-name="afii10083" unicode="&#x441;" horiz-adv-x="1815" 
d="M995 -37q-235 1 -437.5 121t-320.5 326.5t-118 453.5q0 251 117.5 462.5t318.5 335t436 124.5q170 -6 314 -67t228.5 -161.5t84.5 -218.5q0 -120 -63.5 -199t-161.5 -79q-108 0 -173 76t-65 194q0 110 82 221q4 4 4 29v45q0 46 -78 72t-172 26q-148 -23 -221 -122.5
t-131 -327.5q-37 -203 -37 -414q0 -177 33 -377q21 -204 150.5 -323t279.5 -119q4 0 11 2t9 2l9 -4q167 0 327 142.5t221 389.5h70q-161 -610 -692 -610h-25z" />
    <glyph glyph-name="afii10084" unicode="&#x442;" horiz-adv-x="1683" 
d="M639 1671q-170 -51 -258.5 -161.5t-196.5 -317.5l-37 -107h-61l-29 652h1585l-28 -652h-62l-36 107q-102 200 -193.5 314t-261.5 165v-1610h201v-61h-816v61h193v1610z" />
    <glyph glyph-name="afii10085" unicode="&#x443;" horiz-adv-x="1815" 
d="M1634 1671l-495 -1278q-33 -93 -89 -250t-117.5 -318.5t-136.5 -327.5t-153 -292q-119 -153 -206 -197t-212 -44q-151 38 -229.5 101t-81.5 198q6 119 65.5 187t163.5 71q185 -6 201 -234q-4 -62 -27.5 -92t-61.5 -58.5t-38 -49.5l4 -13q0 -14 10.5 -22.5t25.5 -14
t30 -12.5h32q277 0 607 987l-701 1659h-188v66h930v-66h-250l438 -1053l389 1053h-229v66h520v-66h-201z" />
    <glyph glyph-name="afii10086" unicode="&#x444;" horiz-adv-x="2937" 
d="M1257 1524v1171h-192v66h614v-1250q7 12 19.5 46t25.5 49q136 177 357 188h33q213 0 368.5 -125t235.5 -333.5t80 -454.5q-12 -231 -95 -443.5t-233 -343.5t-352 -131h-45q-214 6 -349 184q-14 20 -26 54t-19 45v-1221h201v-61h-815v61h192v1237q-5 -9 -18 -44t-27 -54
q-129 -178 -348 -184h-49q-302 0 -478 271.5t-198 645.5q0 244 79 454t233 334.5t368 124.5h37q222 -11 356 -188q15 -16 27.5 -52.5t17.5 -45.5zM2003 1704q-147 0 -234.5 -124t-93.5 -376v-651q6 -253 96 -382.5t240 -129.5q130 0 218.5 181t88.5 593v143q0 173 -24 341.5
t-92 286.5t-191 118h-8zM934 1720h-12q-177 0 -242.5 -224.5t-65.5 -520.5q0 -15 2 -42t2 -40q0 -8 -2 -32t-2 -30q0 -415 90.5 -594.5t221.5 -179.5q149 0 239.5 129t96.5 379v656q-6 251 -93.5 375t-234.5 124z" />
    <glyph glyph-name="afii10087" unicode="&#x445;" horiz-adv-x="1991" 
d="M303 66l500 688l-508 909h-180v70h901v-70h-209l287 -541l368 537h-205v74h517v-74h-197l-438 -602l565 -1000h217v-61h-975v61h254l-344 619l-418 -615h209v-65h-569v70h225z" />
    <glyph glyph-name="afii10088" unicode="&#x446;" horiz-adv-x="2204" 
d="M1954 0l-1774 -4v65h193v1610h-193v62h815v-62h-200v-1610h557v1610h-197v62h815v-62h-192v-1610h262q-7 -39 -11.5 -141t-25.5 -162q-90 -196 -273 -313t-423 -117q-227 0 -512 127q-44 14 -175 62.5t-182 48.5q-133 0 -172 -242l-61 12q37 235 186.5 371.5t349.5 136.5
q46 0 181 -28q160 -74 276.5 -123.5t230 -82t205.5 -32.5t181 41q74 57 100.5 123t31.5 155.5t7 102.5z" />
    <glyph glyph-name="afii10089" unicode="&#x447;" 
d="M635 1118q0 -2 -4 -12t-4 -12q0 -121 79.5 -206t194.5 -85h336v860h-197v70h815v-70h-192v-1606h192v-61h-815v61h197v676h-336q-298 4 -448.5 73t-194 167.5t-45.5 226.5v463h-193v70h816v-70h-201v-545z" />
    <glyph glyph-name="afii10090" unicode="&#x448;" horiz-adv-x="3023" 
d="M180 -4v65h193v1610h-193v62h815v-62h-200v-1610h520v1610h-193v62h815v-62h-200v-1610h520v1610h-197v62h815v-62h-192v-1610h196v-65h-2699z" />
    <glyph glyph-name="afii10091" unicode="&#x449;" horiz-adv-x="3154" 
d="M180 -4v65h193v1610h-193v62h815v-62h-200v-1610h520v1610h-193v62h815v-62h-200v-1610h520v1610h-197v62h815v-62h-192v-1610h299v-102q0 -101 -49 -213q-135 -196 -367.5 -311t-550.5 -115q-361 0 -815 148q-358 126 -483 126q-221 0 -254 -258h-70q21 154 112 274.5
t236 187.5t324 67q133 0 319 -49q388 -129 613.5 -189.5t402.5 -60.5q187 0 291 69q213 78 213 340v21h-2724z" />
    <glyph glyph-name="afii10092" unicode="&#x44a;" horiz-adv-x="2221" 
d="M1246 1671v-733h323q285 0 431.5 -137.5t146.5 -345.5q-6 -217 -188.5 -336t-475.5 -119h-852v61h193v1610h-119q-136 0 -231 -74.5t-142.5 -158.5t-130.5 -258l-53 -107h-74l49 664h1319v-66h-196zM1340 61q197 0 276 93.5t88 300.5v20q0 224 -69.5 308t-212.5 94h-176
v-816h94z" />
    <glyph glyph-name="afii10093" unicode="&#x44b;" horiz-adv-x="2634" 
d="M1864 57v1606h-193v70h811v-70h-188v-1606h188v-61h-811v61h193zM795 934h323q284 0 431 -139t147 -349q-6 -143 -92 -245t-235.5 -153.5t-336.5 -51.5h-852v61h193v1606h-193v70h815v-70h-200v-729zM885 57q200 0 279.5 91.5t88.5 297.5v21q0 226 -70 310.5t-216 94.5
h-172v-815h90z" />
    <glyph glyph-name="afii10094" unicode="&#x44c;" horiz-adv-x="1774" 
d="M795 934h323q284 0 431 -139t147 -349q-6 -143 -92 -245t-235.5 -153.5t-336.5 -51.5h-852v61h193v1606h-193v70h815v-70h-200v-729zM885 57q200 0 279.5 91.5t88.5 297.5v21q0 226 -70 310.5t-216 94.5h-172v-815h90z" />
    <glyph glyph-name="afii10095" unicode="&#x44d;" horiz-adv-x="1860" 
d="M1274 913q0 53 -6 165t-6 167q-17 236 -102.5 357t-205.5 131q-7 0 -33 2t-36 2q-156 0 -300 -150.5t-204 -447.5l-57 12l8 659l82 5q3 -45 34 -113.5t64 -95.5q40 36 94.5 84t140.5 84t216 36q202 0 378 -129.5t279.5 -346t103.5 -462.5v-20q-4 -241 -127.5 -450
t-320 -334t-404.5 -129h-20q-172 0 -349 103.5t-265 203.5q-19 12 -45 12q-61 0 -74 -86l-33 -131l-49 25l37 151q38 131 104.5 226t136.5 98h29q98 0 146.5 -67.5t101 -201t111 -203t169.5 -69.5h13q269 0 356 467q6 49 16.5 149.5t16.5 227.5q-123 78 -201 78
q-64 0 -144.5 -82t-113.5 -103q-123 -53 -192 -53q-87 0 -205 82q-105 118 -123 176l41 37q10 -24 25.5 -41.5t23.5 -24.5q30 -20 61 -20q69 0 140 65q138 144 327 144q109 0 185 -37q14 -10 176 -152z" />
    <glyph glyph-name="afii10096" unicode="&#x44e;" horiz-adv-x="2896" 
d="M1020 860h-225v-803h200v-61h-815v61h193v1606h-193v70h815v-70h-200v-729h225q16 235 139 432.5t320 312.5t422 115q234 0 440 -123.5t329 -334t123 -451.5q0 -250 -121.5 -461.5t-329.5 -334t-446 -122.5q-241 0 -443 119t-317.5 323.5t-115.5 450.5zM2302 877
q-11 251 -35.5 419t-108.5 300.5t-253 140.5q-184 -10 -271 -145.5t-105 -292.5t-26 -422q8 -288 24 -433t102.5 -279t275.5 -145q170 5 255 137t108 299.5t34 420.5z" />
    <glyph glyph-name="afii10097" unicode="&#x44f;" horiz-adv-x="1860" 
d="M1085 840h-81q-165 0 -253.5 -103.5t-115.5 -384.5q0 -184 -123 -288.5t-365 -104.5q-14 0 -57 2t-65 2v62q100 14 141 54t47 179q8 244 84 406.5t305 207.5q6 2 172 29q-31 3 -86 14t-65 11q-385 77 -385 368l4 9q0 222 153 326t408 104h897v-62h-189v-1610h189v-65
h-815v65h200v779zM995 1671q-360 0 -360 -348q0 -8 2 -26t2 -23q0 -9 -2 -27t-2 -26q0 -144 78 -222t209 -86h163v758h-90z" />
    <glyph glyph-name="afii10071" unicode="&#x451;" horiz-adv-x="1901" 
d="M799 2474q0 -124 -79.5 -209.5t-195.5 -85.5q-113 0 -195.5 86.5t-82.5 208.5q0 117 82.5 202t195.5 85q116 0 195.5 -84.5t79.5 -202.5zM1397 2761q115 0 194.5 -82.5t79.5 -200.5q0 -126 -79 -210.5t-195 -84.5q-114 0 -194.5 85.5t-80.5 209.5q0 117 80.5 200
t194.5 83zM561 946q0 -272 41 -446q24 -212 117 -335.5t207 -123.5l16 4q99 -12 111 -12q134 0 260 69t190 197q77 123 99 274h90q-55 -171 -115 -290q-193 -320 -557 -320h-82q-224 0 -413 119.5t-299.5 328t-110.5 453.5q0 250 110 465.5t297 340t404 124.5
q207 0 385 -113.5t287 -309t122 -425.5h-1159zM565 1024h709q0 10 -4 30t-4 27v193q-53 268 -116.5 363.5t-223.5 95.5q-108 0 -168 -44t-93 -134.5t-71 -280.5q-29 -127 -29 -250z" />
    <glyph glyph-name="afii10099" unicode="&#x452;" horiz-adv-x="2073" 
d="M1094 938h323q285 0 431.5 -137.5t146.5 -345.5q-6 -145 -92.5 -248t-234.5 -155t-337 -52h-852v61h193v1610h-25q-136 0 -226 -51.5t-137.5 -122t-119.5 -211.5l-29 -90h-69l8 537h598v958h-193v66h615v-1024h598l4 -533l-62 -4l-32 86q-97 196 -192.5 292.5
t-295.5 96.5h-20v-733zM1184 61q200 0 279.5 93.5t88.5 300.5v20q0 225 -70 308.5t-216 93.5h-172v-816h90zM1367 1999l451 397q93 95 130.5 148.5t37.5 109.5q0 57 -51.5 98t-120.5 41q-102 0 -165.5 -65t-149.5 -254l-209 -475h77z" />
    <glyph glyph-name="afii10100" unicode="&#x453;" horiz-adv-x="1556" 
d="M795 61h200v-61h-815v61h193v1610h-193v66h1299l45 -664h-70l-53 107q-199 399 -504 491h-102v-1610zM868 1999l451 397q93 95 130.5 148.5t37.5 109.5q0 57 -51.5 98t-120.5 41q-102 0 -165.5 -65t-149.5 -254l-209 -475h77z" />
    <glyph glyph-name="afii10101" unicode="&#x454;" horiz-adv-x="1819" 
d="M618 901q124 114 177 156q65 37 180 37q190 0 328 -148q77 -65 135 -65q25 0 65 20q9 8 25 25t28 41l41 -33q-16 -57 -122 -176q-128 -82 -213 -82q-60 0 -185 49q-31 21 -114.5 104.5t-147.5 83.5q-79 0 -197 -77q4 -110 13.5 -219t15.5 -158q93 -471 352 -471h21
q113 0 170 69t111.5 209t99 203t139.5 63h37q70 -6 138.5 -102.5t103.5 -224.5l36 -148l-53 -24l-28 127q-8 39 -31.5 62.5t-46.5 23.5q-25 0 -41 -8q-95 -103 -271 -207.5t-348 -104.5h-16q-208 6 -405.5 132t-321 334t-129.5 448q0 2 -2 10t-2 10q0 245 105 461.5
t282.5 346.5t378.5 130q131 0 218 -36t140 -81.5t96 -83.5q29 26 62.5 95.5t36.5 109.5l82 -4l4 -659l-54 -13q-43 204 -127 338.5t-185.5 197t-199.5 62.5q-10 0 -32 -2t-29 -2q-122 -6 -206.5 -127t-104.5 -356q0 -77 -4.5 -178.5t-4.5 -157.5z" />
    <glyph glyph-name="afii10102" unicode="&#x455;" horiz-adv-x="1683" 
d="M1356 1237h-58q-71 231 -206 359t-318 128h-53q-234 0 -275 -213q0 -224 230 -311l209 -86q331 -98 460.5 -266t129.5 -352q0 -26 -4.5 -57t-4.5 -42q-22 -156 -117 -259t-217.5 -149t-234.5 -46q-9 0 -32 2t-34 2q-110 5 -197 49t-154.5 102t-114.5 99q-35 0 -52.5 -28
t-36.5 -93.5t-34 -100.5l-58 5v638h58q212 -576 610 -614q3 0 20 -2t25 -2q135 0 240 70t116 209q-10 122 -72.5 200.5t-242.5 155.5l-352 127q-373 173 -373 500q0 2 2 10t2 10q16 261 155 386.5t373 125.5h50q163 0 405 -188q74 81 103 172h53v-541z" />
    <glyph glyph-name="afii10103" unicode="&#x456;" horiz-adv-x="1122" 
d="M795 61h200v-61h-815v61h193v1610h-193v66h615v-1676zM852 2392q0 -125 -89 -218t-206 -93q-113 0 -198 92.5t-85 218.5t84.5 216.5t198.5 90.5q78 0 146 -42t108.5 -112.5t40.5 -152.5z" />
    <glyph glyph-name="afii10104" unicode="&#x457;" horiz-adv-x="1212" 
d="M385 2384q0 -120 -75 -201.5t-187 -81.5q-105 0 -181.5 82.5t-76.5 200.5q0 75 35.5 138.5t95 101.5t127.5 38q111 0 186.5 -82t75.5 -196zM958 2662q72 0 135.5 -37.5t101.5 -100t38 -132.5q0 -124 -81 -207.5t-194 -83.5t-189.5 83t-76.5 208q0 108 77.5 189t188.5 81z
M795 61h200v-61h-815v61h193v1610h-193v66h615v-1676z" />
    <glyph glyph-name="afii10110" unicode="&#x45e;" horiz-adv-x="1860" 
d="M1024 2003q-137 0 -284.5 49.5t-243.5 147.5q-136 121 -136 294q0 123 78 201q70 70 176 70q119 0 193 -86q74 -74 74 -189q0 -112 -74 -192q-31 -37 -94.5 -57t-98.5 -25q58 -60 166 -95.5t224 -35.5q4 0 17 4t15 4q271 0 418 123q-34 5 -99 24.5t-110 57.5
q-65 84 -65 192q0 111 65 189q80 86 201 86q110 0 180 -70q78 -84 78 -213q0 -79 -37 -160.5t-106 -138.5q-161 -166 -537 -180zM1634 1671l-495 -1278q-33 -93 -89 -250t-117.5 -318.5t-136.5 -327.5t-153 -292q-119 -153 -206 -197t-212 -44q-151 38 -229.5 101t-81.5 198
q6 119 65.5 187t163.5 71q185 -6 201 -234q-4 -62 -27.5 -92t-61.5 -58.5t-38 -49.5l4 -13q0 -14 10.5 -22.5t25.5 -14t30 -12.5h32q277 0 607 987l-701 1659h-188v66h930v-66h-250l438 -1053l389 1053h-229v66h520v-66h-201z" />
    <glyph glyph-name="afii10146" unicode="&#x462;" horiz-adv-x="2593" 
d="M1278 1405h258q356 -32 552.5 -117.5t276.5 -226.5t93 -361q-21 -174 -74.5 -296t-160.5 -207.5t-285.5 -134t-454.5 -62.5h-1028v74h319v2281h-110q-116 0 -225.5 -113t-189 -282t-114.5 -334h-61l4 811h688v246h-299v82h1085v-82h-274v-242h721l4 -807h-61
q-35 160 -114.5 330t-189 282.5t-225.5 112.5h-135v-954zM1278 74q216 7 355.5 59t215.5 186t76 373q-3 364 -120 489.5t-388 125.5h-139v-1233z" />
    <glyph glyph-name="afii10194" unicode="&#x463;" horiz-adv-x="2073" 
d="M1094 938h323q285 0 431.5 -137.5t146.5 -345.5q-6 -145 -92.5 -248t-234.5 -155t-337 -52h-852v61h193v1610h-25q-136 0 -226 -51.5t-137.5 -122t-119.5 -211.5l-29 -90h-69l8 537h598v958h-193v66h615v-1024h598l4 -533l-62 -4l-32 86q-97 196 -192.5 292.5
t-295.5 96.5h-20v-733zM1184 61q200 0 279.5 93.5t88.5 300.5v20q0 225 -70 308.5t-216 93.5h-172v-816h90z" />
    <glyph glyph-name="afii10147" unicode="&#x472;" horiz-adv-x="2634" 
d="M1319 12q171 6 304.5 90t195.5 238q118 370 118 1020q0 307 -32 717q-52 331 -178 499t-412 168q-192 -10 -307.5 -91t-175.5 -221.5t-91 -354.5q-36 -461 -36 -717q0 -629 114 -1020q107 -297 500 -328zM1319 -53q-259 0 -484 121.5t-388.5 329t-252 467t-88.5 528.5
q14 310 108.5 568.5t258 449.5t380.5 295t466 104q251 0 469.5 -104.5t381.5 -294t260 -450t110 -568.5q0 -268 -90 -527t-255.5 -466t-390 -328.5t-485.5 -124.5zM1004 1606h659v196h70v-790h-70v209h-659v-209h-66v790h66v-196z" />
    <glyph glyph-name="afii10195" unicode="&#x473;" horiz-adv-x="1991" 
d="M1397 946q-12 230 -40.5 388t-112 276.5t-240.5 126.5q-175 -10 -263.5 -131.5t-112.5 -284.5t-26 -375h795zM1397 856h-795q0 -5 -2 -25t-2 -28q0 -337 74.5 -554t331.5 -229q166 3 249 129.5t106.5 285.5t37.5 421zM999 1794q234 0 440.5 -123.5t329.5 -334t123 -451.5
q0 -250 -121.5 -461.5t-329.5 -334t-446 -122.5q-241 0 -442.5 119t-317.5 324.5t-116 453.5q0 252 119.5 466.5t323 339t437.5 124.5z" />
    <glyph glyph-name="afii10148" unicode="&#x474;" horiz-adv-x="2851" 
d="M1511 766l426 1507q71 234 175.5 385.5t332.5 151.5h25q166 -33 238.5 -126.5t72.5 -205.5q0 -53 -4 -74q-18 -102 -98.5 -167.5t-179.5 -65.5q-9 0 -23 2t-22 2q-95 20 -156.5 94.5t-61.5 171.5q0 9 4.5 32t4.5 38q12 42 23 59t30.5 35t32.5 37q-3 10 -13.5 25.5
t-31.5 15.5q-40 0 -95 -66q-40 -47 -64 -95t-60.5 -149.5t-43.5 -119.5l-643 -2319h-102l-991 2757h-250v70h1114v-66h-328z" />
    <glyph glyph-name="afii10196" unicode="&#x475;" 
d="M1401 1253l-422 -1294h-82l-664 1712h-192v66h881v-66h-205l405 -1085l213 667q26 74 72.5 199t128 217t209.5 92q53 0 78 -4q89 -29 134.5 -82.5t45.5 -158.5v-17q-36 -233 -246 -233q-184 60 -184 180q0 5 4 25t4 28q17 87 94 164h-20q-56 0 -115 -82
q-33 -40 -56 -91.5t-40.5 -106.5t-42.5 -130z" />
    <glyph glyph-name="afii10050" unicode="&#x490;" horiz-adv-x="2204" 
d="M1057 2671v-2614h315v-69h-1139v73h312v2610h-312v82h1172q156 0 277 104t208.5 258t190.5 387h90l-21 -831h-1093z" />
    <glyph glyph-name="afii10098" unicode="&#x491;" horiz-adv-x="1556" 
d="M897 1737l4 -4q130 0 272 154t228 329l37 115h73l-36 -660h-680v-1610h200v-61h-815v61h193v1610h-193v66h717z" />
    <glyph glyph-name="endash" unicode="&#x2013;" horiz-adv-x="2118" 
d="M1876 754h-1802l139 360h1810z" />
    <glyph glyph-name="emdash" unicode="&#x2014;" horiz-adv-x="3195" 
d="M2953 754h-2892l140 360h2891z" />
    <glyph glyph-name="quoteleft" unicode="&#x2018;" horiz-adv-x="823" 
d="M213 2273q93 107 213 107q131 0 223 -98t92 -226q0 -135 -90 -233.5t-217 -98.5q-152 0 -246 126t-94 341q0 214 69 383t201.5 281.5t315.5 155.5l4 -74q-242 -70 -356.5 -233t-114.5 -431z" />
    <glyph glyph-name="quoteright" unicode="&#x2019;" horiz-adv-x="823" 
d="M618 2462q-97 -111 -233 -111q-116 0 -209.5 99.5t-93.5 228.5q0 132 90 232t205 100q167 0 261.5 -126.5t94.5 -344.5q0 -321 -157.5 -539.5t-432.5 -276.5l-8 70q483 140 483 668z" />
    <glyph glyph-name="quotesinglbase" unicode="&#x201a;" horiz-adv-x="823" 
d="M602 57q-94 -94 -217 -94q-115 0 -203 89.5t-88 213.5q0 127 84.5 221.5t198.5 94.5q155 0 247.5 -122.5t92.5 -324.5q0 -200 -67.5 -360t-196.5 -267.5t-306 -150.5l-8 70q463 136 463 630z" />
    <glyph glyph-name="quotedblleft" unicode="&#x201c;" horiz-adv-x="1642" 
d="M1536 2945q-233 -100 -356 -263.5t-123 -416.5q85 111 209 111q111 0 190.5 -83.5t79.5 -195.5q0 -135 -78 -223t-201 -88q-134 0 -218.5 124.5t-84.5 309.5q0 195 69 350.5t196.5 267.5t300.5 177zM647 3015l17 -70q-228 -98 -349.5 -259t-121.5 -364v-57
q75 107 208 107q70 0 130.5 -37.5t96.5 -102t36 -139.5q0 -133 -76 -220t-195 -87q-131 0 -215 124t-84 306q0 291 148 495t405 304z" />
    <glyph glyph-name="quotedblright" unicode="&#x201d;" horiz-adv-x="1642" 
d="M94 1855q479 202 479 676q-76 -110 -213 -110q-107 0 -184.5 81.5t-77.5 196.5q0 134 77.5 223t197.5 89q85 0 154 -57t109 -156t40 -222q0 -285 -151 -488t-410 -306zM975 1782l-17 73q226 94 357 264t131 404q-98 -102 -213 -102q-113 0 -191.5 81t-78.5 197
q0 134 77.5 223t196.5 89q88 0 158.5 -57.5t109.5 -157t39 -220.5q0 -193 -69 -348.5t-197 -268t-303 -177.5z" />
    <glyph glyph-name="quotedblbase" unicode="&#x201e;" horiz-adv-x="1679" 
d="M1466 57q-94 -94 -217 -94q-115 0 -203 89.5t-88 213.5q0 127 84.5 221.5t198.5 94.5q155 0 247.5 -122.5t92.5 -324.5q0 -200 -67.5 -360t-196.5 -267.5t-306 -150.5l-8 70q463 136 463 630zM602 57q-94 -94 -217 -94q-115 0 -203 89.5t-88 213.5q0 127 84.5 221.5
t198.5 94.5q155 0 247.5 -122.5t92.5 -324.5q0 -200 -67.5 -360t-196.5 -267.5t-306 -150.5l-8 70q463 136 463 630z" />
    <glyph glyph-name="bullet" unicode="&#x2022;" horiz-adv-x="823" 
d="M0 1233q0 169 114 293.5t271 124.5q115 0 206 -57t143 -154t52 -207q0 -176 -114 -297t-287 -121q-103 0 -191.5 56t-141 151.5t-52.5 210.5z" />
    <glyph glyph-name="ellipsis" unicode="&#x2026;" horiz-adv-x="2469" 
d="M1237 594q124 0 211.5 -92.5t87.5 -227.5q0 -128 -87.5 -217.5t-211.5 -89.5q-121 0 -210 90t-89 217q0 134 89 227t210 93zM2060 594q124 0 211.5 -92.5t87.5 -227.5q0 -128 -87.5 -217.5t-211.5 -89.5q-121 0 -210 90t-89 217q0 134 89 227t210 93zM414 594
q124 0 211.5 -92.5t87.5 -227.5q0 -128 -87.5 -217.5t-211.5 -89.5q-121 0 -210 90t-89 217q0 134 89 227t210 93z" />
    <glyph glyph-name="perthousand" unicode="&#x2030;" horiz-adv-x="4109" 
d="M3154 643q0 -245 17.5 -375.5t61 -180.5t126.5 -50q88 0 132 51.5t60.5 180.5t16.5 390q0 305 -14.5 443t-54.5 187.5t-127 49.5q-92 0 -137.5 -56t-63 -205t-17.5 -435zM3359 -12q-148 0 -263 88.5t-180 247t-65 356.5q0 184 71.5 352.5t189.5 268.5t251 100
q137 0 255 -96t187.5 -262.5t69.5 -358.5q0 -189 -70.5 -348.5t-189 -253.5t-256.5 -94zM2138 2822l-1266 -2867h-131l1274 2867h123zM1896 643q0 -245 17.5 -375.5t61 -180.5t126.5 -50q88 0 132 51.5t60.5 180.5t16.5 390q0 305 -14.5 443t-54.5 187.5t-127 49.5
q-92 0 -137.5 -56t-63 -205t-17.5 -435zM2101 -12q-148 0 -263 88.5t-180 247t-65 356.5q0 184 71.5 352.5t189.5 268.5t251 100q137 0 255 -96t187.5 -262.5t69.5 -358.5q0 -189 -70.5 -348.5t-189 -253.5t-256.5 -94zM242 2064q0 191 70.5 356.5t189 263t252.5 97.5
q140 0 257 -94t184 -254.5t67 -355.5q0 -188 -70.5 -353t-187.5 -262.5t-250 -97.5q-143 0 -261 92t-184.5 253.5t-66.5 354.5zM758 2724q-91 0 -136.5 -55t-63 -202.5t-17.5 -434.5q0 -251 18 -380t63.5 -180t131.5 -51q82 0 125.5 51.5t61 183.5t17.5 384q0 297 -15 441.5
t-55.5 193.5t-129.5 49z" />
    <glyph glyph-name="guilsinglleft" unicode="&#x2039;" 
d="M2105 2433l-1540 -848l1512 -811v-508l-1905 1077v140l1933 1052v-102z" />
    <glyph glyph-name="guilsinglright" unicode="&#x203a;" horiz-adv-x="2204" 
d="M119 393l1540 844l-1512 815v504l1909 -1077v-140l-1937 -1052v106z" />
    <glyph glyph-name="Euro" unicode="&#x20ac;" horiz-adv-x="2278" 
d="M1580 2650q-336 0 -564 -162q-136 -96 -246 -272q-112 -182 -132 -346h1364l-54 -268h-1342q-2 -42 -2 -80q0 -154 2 -184h1288l-56 -268h-1190q84 -458 404 -650q230 -138 498 -138q374 0 584 196v-412q-250 -116 -552 -116q-904 0 -1222 752q-64 152 -110 368h-306
l56 268h210q-6 84 -6 182q0 40 2 82h-262l56 268h232q124 652 646 936q322 176 710 176q372 0 626 -162l-80 -372q-244 202 -554 202z" />
    <glyph glyph-name="afii61352" unicode="&#x2116;" horiz-adv-x="3715" 
d="M627 2322v-1675q0 -198 9.5 -256.5t47.5 -169.5q56 -160 221 -160h90v-65h-823v61q5 0 23 -2t26 -2q9 0 27 2t26 2q271 65 271 557v1831l-144 226h-143v82h733l1266 -1934v1319q0 496 -275 561h-102v62h823v-66h-86q-166 0 -221 -160q-38 -107 -47.5 -167.5t-9.5 -262.5
v-2158h-127zM3232 1757q0 307 -193 307q-180 0 -180 -307v-479q0 -311 180 -311q193 0 193 311v479zM3535 659v-114h-1000v114h1000zM3043 2105q135 0 249.5 -79t182.5 -214.5t68 -291.5q0 -158 -67.5 -295.5t-183.5 -218t-249 -80.5q-137 0 -252 79t-183 214.5t-68 291.5
q0 158 67.5 295.5t184 218t251.5 80.5z" />
    <glyph glyph-name="trademark" unicode="&#x2122;" horiz-adv-x="3232" 
d="M365 1257h663v107h-160v1286q57 -2 102 -37t82.5 -90t69 -124t62.5 -138h106l-20 512h-1147l-25 -512h107q32 69 65 138.5t71 125t83.5 90.5t103.5 35v-1282h-163v-111zM1786 1630v733l323 -1114h123l324 1094v-975h-131v-119h602v119h-139v1282h139v123h-471l-275 -909
l-258 909h-495v-123h135v-1040q0 -26 -2 -64.5t-12.5 -75.5t-32 -67t-60.5 -39h5q-4 -3 -8.5 -3.5l-4.5 -0.5h-28q-2 0 -9 0.5t-15.5 1.5t-16 1.5t-9.5 0.5v-115h508v115h-86q-28 0 -50 13t-32 44q-6 18 -10.5 32t-7.5 34.5t-4.5 53t-1.5 89.5z" />
    <glyph glyph-name="Acutesmall" unicode="&#xf7b4;" horiz-adv-x="104" 
d="M-1142 3031l336 471q53 74 101 125.5t93 83.5t87 46.5t84 14.5q80 0 124 -38.5t44 -107.5q0 -37 -12 -70.5t-38.5 -67.5t-68 -68.5t-99.5 -73.5l-561 -315h-90z" />
    </font>
</defs>
</svg>
